<svg width="218" height="160" viewBox="0 0 218 160" fill="none" xmlns="http://www.w3.org/2000/svg">
<path d="M0 0H218V130C218 146.569 204.569 160 188 160H30C13.4315 160 0 146.569 0 130V0Z" fill="white" fill-opacity="0.5"/>
<path d="M144.122 76.489L113.293 63.0247C111.193 65.5125 108.972 68.0365 106.628 70.5969L129.455 80.4831C130.289 80.9893 131.185 81.3754 132.116 81.631C133.336 81.9752 134.595 82.1477 135.858 82.1439C140.741 82.1439 144.672 79.7458 144.842 76.7454C144.604 76.6685 144.354 76.5916 144.122 76.489Z" fill="#1FE5B4"/>
<path d="M96.7769 55.8181C82.0002 77.0081 73.2295 90.4723 71.7522 94.3447C71.3433 95.2046 71.0927 96.1377 71.0137 97.0953C71.3617 97.0569 72.2346 96.8132 74.206 95.6208C75.8111 94.6399 77.4713 93.5368 79.2903 92.2354L79.8639 91.8251L91.9186 97.0376L92.1811 97.153C92.4984 97.2812 92.7915 97.4095 93.1576 97.5249C97.4913 98.9674 101.165 97.839 101.739 95.9221C102.313 94.0049 100.207 91.434 96.9661 89.9594L96.832 89.9017C96.6549 89.8184 96.478 89.7415 96.2948 89.6709L87.3897 85.8753L89.0131 84.4392C93.2857 80.5922 97.6986 76.3157 102.203 71.5583C105.292 68.3014 108.154 65.0828 110.821 61.941L96.7769 55.8181Z" fill="#1FE5B4"/>
<path d="M145.09 74.0012C146.552 74.5951 148.107 74.8912 149.674 74.8734C154.221 74.8734 157.395 72.6356 157.395 70.6226C157.395 69.2826 156.077 67.9424 153.953 67.1218H153.898L73.0435 31.8331C72.6486 31.6268 72.2406 31.449 71.8226 31.301C70.5003 30.8385 69.1149 30.6066 67.7209 30.615C63.1679 30.615 60 32.8525 60 34.8656C60 36.2251 61.4037 37.6163 63.5828 38.4177L95.8952 52.523L98.3367 53.5809L112.589 59.8064L115.085 60.8963L145.09 74.0012Z" fill="#1FE5B4"/>
<path d="M64.813 52.4971C65.4358 52.8462 66.0901 53.1298 66.7661 53.3434L88.33 62.6786C90.5395 59.6522 92.6025 56.9082 94.2443 54.7156L67.7122 43.1298C64.2942 43.9251 61.8647 45.9639 61.8647 48.3616C61.8647 49.9839 62.982 51.4393 64.7579 52.465L64.813 52.4971Z" fill="#1FE5B4"/>
<path d="M121.913 50.2405C122.224 49.8302 122.401 49.5994 122.401 49.5994C123.396 48.2463 125.501 45.2972 125.099 41.758C124.543 36.8211 119.147 31.2752 113.947 32.4551C110.847 33.1539 109.065 35.9684 108.497 36.9429C107.313 38.6101 105.945 40.5399 104.462 42.6427L121.913 50.2405Z" fill="#1FE5B4"/>
<path d="M75.8063 80.9384L71.6498 79.1625C70.8046 78.6479 69.9081 78.2329 68.9763 77.9252C67.0909 77.2441 65.0682 77.0961 63.1108 77.4956C61.6642 77.8482 60.6696 78.5855 60.3887 79.528C59.8394 81.3615 61.8109 83.8878 64.9785 85.4009C65.2533 85.5355 65.5402 85.6573 65.8331 85.7727L71.5705 88.2541C72.7179 86.042 74.1705 83.5544 75.8063 80.9384Z" fill="#1FE5B4"/>
<path d="M45.3988 123.953V127H30.9555V124.393L37.8842 116.907C38.6068 116.087 39.1781 115.374 39.598 114.769C40.018 114.163 40.3158 113.616 40.4916 113.128C40.6771 112.63 40.7699 112.156 40.7699 111.707C40.7699 111.053 40.6527 110.481 40.4184 109.993C40.184 109.495 39.8422 109.109 39.393 108.836C38.9535 108.562 38.4115 108.426 37.767 108.426C37.0541 108.426 36.4437 108.592 35.9359 108.924C35.4379 109.246 35.057 109.695 34.7934 110.271C34.5395 110.848 34.4125 111.507 34.4125 112.249H30.5307C30.5307 110.989 30.8236 109.842 31.4096 108.807C31.9955 107.762 32.8354 106.927 33.9291 106.302C35.0229 105.677 36.3217 105.364 37.8256 105.364C39.2904 105.364 40.5307 105.608 41.5463 106.097C42.5619 106.575 43.3334 107.259 43.8607 108.147C44.3881 109.036 44.6518 110.096 44.6518 111.326C44.6518 112.01 44.5395 112.684 44.3148 113.348C44.0902 114.012 43.7729 114.671 43.3627 115.325C42.9623 115.97 42.4838 116.624 41.9271 117.288C41.3705 117.952 40.7504 118.631 40.0668 119.324L35.9066 123.953H45.3988ZM57.6736 108.909L51.5945 127H47.3318L55.3006 105.672H58.0252L57.6736 108.909ZM62.7566 127L56.6482 108.909L56.282 105.672H59.0213L67.034 127H62.7566ZM62.4783 119.075V122.254H51.0379V119.075H62.4783ZM72.9514 114.534V127H69.0842V111.15H72.717L72.9514 114.534ZM72.3361 118.504H71.1936C71.2033 117.352 71.3596 116.307 71.6623 115.369C71.965 114.432 72.3898 113.626 72.9367 112.952C73.4934 112.278 74.1525 111.761 74.9143 111.399C75.676 111.038 76.5256 110.857 77.4631 110.857C78.2248 110.857 78.9133 110.965 79.5285 111.18C80.1437 111.395 80.6711 111.736 81.1105 112.205C81.5598 112.674 81.9016 113.289 82.1359 114.051C82.3801 114.803 82.5021 115.73 82.5021 116.834V127H78.6057V116.805C78.6057 116.082 78.4982 115.511 78.2834 115.091C78.0783 114.671 77.7756 114.373 77.3752 114.197C76.9846 114.021 76.5012 113.934 75.925 113.934C75.3293 113.934 74.8068 114.056 74.3576 114.3C73.9182 114.534 73.5471 114.861 73.2443 115.281C72.9514 115.701 72.7268 116.185 72.5705 116.731C72.4143 117.278 72.3361 117.869 72.3361 118.504ZM91.1588 125.242L95.4068 111.15H99.5523L93.1949 129.402C93.0484 129.793 92.858 130.218 92.6236 130.677C92.399 131.136 92.0963 131.57 91.7154 131.98C91.3346 132.4 90.8561 132.742 90.2799 133.006C89.7135 133.27 89.025 133.401 88.2145 133.401C87.8629 133.401 87.5504 133.377 87.277 133.328C87.0035 133.279 86.7154 133.216 86.4127 133.138V130.237C86.5103 130.247 86.6227 130.252 86.7496 130.252C86.8863 130.262 87.0035 130.267 87.1012 130.267C87.6676 130.267 88.1363 130.198 88.5074 130.062C88.8785 129.935 89.1764 129.725 89.401 129.432C89.6353 129.148 89.8307 128.777 89.9869 128.318L91.1588 125.242ZM89.0641 111.15L92.6529 122.825L93.2828 126.912L90.6168 127.396L84.8893 111.15H89.0641ZM107.564 122.913L111.812 105.672H114.112L114.259 109.305L109.718 127H107.286L107.564 122.913ZM104.884 105.672L108.37 122.854V127H105.719L100.885 105.672H104.884ZM118.668 122.781L122.096 105.672H126.109L121.275 127H118.624L118.668 122.781ZM115.211 105.672L119.459 122.972L119.708 127H117.276L112.75 109.29L112.926 105.672H115.211ZM132.759 104.5V127H128.877V104.5H132.759ZM132.144 118.504H131.001C131.001 117.4 131.148 116.385 131.441 115.457C131.734 114.529 132.149 113.724 132.686 113.04C133.223 112.347 133.863 111.81 134.605 111.429C135.357 111.048 136.187 110.857 137.095 110.857C137.876 110.857 138.584 110.97 139.219 111.194C139.864 111.409 140.415 111.756 140.874 112.234C141.333 112.713 141.685 113.338 141.929 114.109C142.183 114.871 142.31 115.799 142.31 116.893V127H138.413V116.863C138.413 116.131 138.306 115.555 138.091 115.135C137.876 114.705 137.569 114.397 137.168 114.212C136.778 114.026 136.294 113.934 135.718 113.934C135.093 113.934 134.556 114.056 134.107 114.3C133.658 114.534 133.287 114.861 132.994 115.281C132.71 115.701 132.496 116.185 132.349 116.731C132.212 117.278 132.144 117.869 132.144 118.504ZM153.442 127.293C152.241 127.293 151.162 127.098 150.205 126.707C149.248 126.316 148.432 125.774 147.759 125.081C147.095 124.378 146.582 123.562 146.221 122.635C145.869 121.697 145.693 120.691 145.693 119.617V119.031C145.693 117.811 145.869 116.702 146.221 115.706C146.572 114.7 147.07 113.836 147.715 113.113C148.359 112.391 149.131 111.834 150.029 111.443C150.928 111.053 151.919 110.857 153.003 110.857C154.126 110.857 155.117 111.048 155.976 111.429C156.836 111.8 157.554 112.327 158.13 113.011C158.706 113.694 159.14 114.515 159.433 115.472C159.726 116.419 159.873 117.469 159.873 118.621V120.247H147.451V117.581H156.064V117.288C156.045 116.673 155.928 116.111 155.713 115.604C155.498 115.086 155.166 114.676 154.717 114.373C154.267 114.061 153.686 113.904 152.973 113.904C152.397 113.904 151.894 114.031 151.465 114.285C151.045 114.529 150.693 114.881 150.41 115.34C150.137 115.789 149.931 116.326 149.795 116.951C149.658 117.576 149.59 118.27 149.59 119.031V119.617C149.59 120.281 149.678 120.896 149.853 121.463C150.039 122.029 150.307 122.522 150.659 122.942C151.02 123.353 151.45 123.675 151.948 123.909C152.456 124.134 153.032 124.246 153.677 124.246C154.487 124.246 155.22 124.09 155.874 123.777C156.538 123.455 157.114 122.981 157.602 122.356L159.551 124.378C159.219 124.866 158.769 125.335 158.203 125.784C157.646 126.233 156.972 126.6 156.181 126.883C155.39 127.156 154.477 127.293 153.442 127.293ZM166.933 114.388V127H163.066V111.15H166.728L166.933 114.388ZM171.752 111.048L171.694 114.651C171.479 114.612 171.235 114.583 170.961 114.563C170.697 114.544 170.448 114.534 170.214 114.534C169.618 114.534 169.096 114.617 168.647 114.783C168.197 114.939 167.821 115.169 167.519 115.472C167.226 115.774 167.001 116.146 166.845 116.585C166.689 117.015 166.601 117.503 166.581 118.05L165.746 117.947C165.746 116.941 165.849 116.009 166.054 115.149C166.259 114.29 166.557 113.538 166.947 112.894C167.338 112.249 167.826 111.751 168.412 111.399C169.008 111.038 169.692 110.857 170.463 110.857C170.678 110.857 170.907 110.877 171.152 110.916C171.405 110.945 171.606 110.989 171.752 111.048ZM181.302 127.293C180.101 127.293 179.022 127.098 178.065 126.707C177.108 126.316 176.293 125.774 175.619 125.081C174.955 124.378 174.442 123.562 174.081 122.635C173.729 121.697 173.553 120.691 173.553 119.617V119.031C173.553 117.811 173.729 116.702 174.081 115.706C174.432 114.7 174.93 113.836 175.575 113.113C176.219 112.391 176.991 111.834 177.889 111.443C178.788 111.053 179.779 110.857 180.863 110.857C181.986 110.857 182.977 111.048 183.837 111.429C184.696 111.8 185.414 112.327 185.99 113.011C186.566 113.694 187.001 114.515 187.294 115.472C187.587 116.419 187.733 117.469 187.733 118.621V120.247H175.311V117.581H183.924V117.288C183.905 116.673 183.788 116.111 183.573 115.604C183.358 115.086 183.026 114.676 182.577 114.373C182.128 114.061 181.546 113.904 180.834 113.904C180.257 113.904 179.754 114.031 179.325 114.285C178.905 114.529 178.553 114.881 178.27 115.34C177.997 115.789 177.792 116.326 177.655 116.951C177.518 117.576 177.45 118.27 177.45 119.031V119.617C177.45 120.281 177.538 120.896 177.713 121.463C177.899 122.029 178.168 122.522 178.519 122.942C178.88 123.353 179.31 123.675 179.808 123.909C180.316 124.134 180.892 124.246 181.537 124.246C182.347 124.246 183.08 124.09 183.734 123.777C184.398 123.455 184.974 122.981 185.462 122.356L187.411 124.378C187.079 124.866 186.629 125.335 186.063 125.784C185.506 126.233 184.833 126.6 184.042 126.883C183.251 127.156 182.337 127.293 181.302 127.293Z" fill="#1FE5B4"/>
</svg>
