<svg width="215" height="76" viewBox="0 0 215 76" fill="none" xmlns="http://www.w3.org/2000/svg">
<path d="M200.667 0.474976H14.3333C6.41725 0.474976 0 6.85492 0 14.725V60.325C0 68.195 6.41725 74.575 14.3333 74.575H200.667C208.583 74.575 215 68.195 215 60.325V14.725C215 6.85492 208.583 0.474976 200.667 0.474976Z" fill="white"/>
<path d="M37.6619 17.4994L39.1712 14.9059C40.1028 13.285 42.1804 12.7385 43.8109 13.6647C45.4413 14.591 45.991 16.6565 45.0593 18.2775L30.516 43.3047H41.0345C44.4444 43.3047 46.3543 47.2876 44.873 50.0478H14.0348C12.1529 50.0478 10.6436 48.5473 10.6436 46.6763C10.6436 44.8053 12.1529 43.3047 14.0348 43.3047H22.6807L33.7489 24.2333L30.2924 18.2682C29.3607 16.6473 29.9104 14.6003 31.5408 13.6555C33.1712 12.7292 35.2302 13.2757 36.1805 14.8967L37.6619 17.4994ZM24.5813 53.5213L21.3204 59.1436C20.3888 60.7646 18.3111 61.311 16.6807 60.3848C15.0503 59.4585 14.5006 57.393 15.4323 55.7721L17.8546 51.604C20.5937 50.7611 22.8204 51.4094 24.5813 53.5213ZM52.6617 43.3233H61.4846C63.3665 43.3233 64.8758 44.8238 64.8758 46.6948C64.8758 48.5658 63.3665 50.0664 61.4846 50.0664H56.584L59.8914 55.7721C60.8231 57.393 60.2734 59.44 58.643 60.3848C57.0126 61.311 54.9536 60.7646 54.0033 59.1436C48.4319 49.5384 44.2487 42.3507 41.4724 37.562C38.6308 32.6899 40.6618 27.7993 42.6649 26.1413C44.8916 29.939 48.2176 35.6724 52.6617 43.3233Z" fill="#0D92F6"/>
<path d="M89.7848 42.6128L85.3505 56.0501H81.7783L87.8363 39.8407H90.1096L89.7848 42.6128ZM93.4689 56.0501L89.0234 42.6128L88.6651 39.8407H90.9605L97.0522 56.0501H93.4689ZM93.2673 50.0161V52.6324H84.6562V50.0161H93.2673ZM101.229 46.3201V60.6814H98.0041V44.0045H100.994L101.229 46.3201ZM108.9 49.8937V50.1275C108.9 51.0032 108.795 51.8159 108.586 52.5656C108.385 53.3151 108.086 53.9683 107.69 54.5249C107.295 55.0741 106.802 55.5046 106.212 55.8163C105.63 56.1207 104.958 56.2727 104.197 56.2727C103.457 56.2727 102.816 56.1244 102.271 55.8275C101.726 55.5306 101.266 55.115 100.893 54.5807C100.527 54.0387 100.232 53.4116 100.008 52.6991C99.7846 51.9866 99.6129 51.2222 99.4935 50.4058V49.7935C99.6129 48.9177 99.7846 48.1162 100.008 47.3888C100.232 46.654 100.527 46.0194 100.893 45.485C101.266 44.9432 101.722 44.524 102.259 44.227C102.804 43.9302 103.443 43.7817 104.174 43.7817C104.943 43.7817 105.619 43.9265 106.201 44.2159C106.791 44.5053 107.283 44.921 107.679 45.4628C108.082 46.0046 108.385 46.6503 108.586 47.3999C108.795 48.1495 108.9 48.9808 108.9 49.8937ZM105.664 50.1275V49.8937C105.664 49.3815 105.619 48.9103 105.529 48.4798C105.447 48.0419 105.313 47.6597 105.126 47.3331C104.947 47.0065 104.708 46.7543 104.409 46.5762C104.118 46.3906 103.764 46.2977 103.346 46.2977C102.905 46.2977 102.528 46.3682 102.215 46.5093C101.908 46.6503 101.658 46.8545 101.464 47.1216C101.27 47.3888 101.125 47.7079 101.028 48.079C100.931 48.4502 100.871 48.8694 100.848 49.3371V50.8845C100.886 51.4337 100.99 51.9273 101.162 52.3652C101.334 52.7956 101.599 53.137 101.957 53.3894C102.315 53.6417 102.786 53.7678 103.368 53.7678C103.793 53.7678 104.152 53.6751 104.443 53.4895C104.734 53.2966 104.969 53.0331 105.148 52.6991C105.335 52.3652 105.466 51.9792 105.54 51.5413C105.622 51.1034 105.664 50.6321 105.664 50.1275ZM114.129 46.3201V60.6814H110.904V44.0045H113.894L114.129 46.3201ZM121.8 49.8937V50.1275C121.8 51.0032 121.695 51.8159 121.486 52.5656C121.285 53.3151 120.986 53.9683 120.59 54.5249C120.195 55.0741 119.702 55.5046 119.112 55.8163C118.53 56.1207 117.858 56.2727 117.097 56.2727C116.357 56.2727 115.716 56.1244 115.171 55.8275C114.626 55.5306 114.166 55.115 113.793 54.5807C113.427 54.0387 113.132 53.4116 112.908 52.6991C112.685 51.9866 112.513 51.2222 112.393 50.4058V49.7935C112.513 48.9177 112.685 48.1162 112.908 47.3888C113.132 46.654 113.427 46.0194 113.793 45.485C114.166 44.9432 114.622 44.524 115.159 44.227C115.704 43.9302 116.343 43.7817 117.074 43.7817C117.843 43.7817 118.519 43.9265 119.101 44.2159C119.691 44.5053 120.183 44.921 120.579 45.4628C120.982 46.0046 121.285 46.6503 121.486 47.3999C121.695 48.1495 121.8 48.9808 121.8 49.8937ZM118.564 50.1275V49.8937C118.564 49.3815 118.519 48.9103 118.429 48.4798C118.347 48.0419 118.213 47.6597 118.026 47.3331C117.847 47.0065 117.608 46.7543 117.309 46.5762C117.018 46.3906 116.664 46.2977 116.246 46.2977C115.805 46.2977 115.428 46.3682 115.115 46.5093C114.808 46.6503 114.558 46.8545 114.364 47.1216C114.17 47.3888 114.025 47.7079 113.928 48.079C113.831 48.4502 113.771 48.8694 113.748 49.3371V50.8845C113.786 51.4337 113.89 51.9273 114.062 52.3652C114.234 52.7956 114.499 53.137 114.857 53.3894C115.215 53.6417 115.686 53.7678 116.268 53.7678C116.693 53.7678 117.052 53.6751 117.343 53.4895C117.634 53.2966 117.869 53.0331 118.048 52.6991C118.235 52.3652 118.366 51.9792 118.44 51.5413C118.522 51.1034 118.564 50.6321 118.564 50.1275ZM138.205 51.8085C138.205 51.5191 138.16 51.2593 138.07 51.0293C137.988 50.7917 137.831 50.5766 137.6 50.3835C137.368 50.1831 137.044 49.9865 136.626 49.7935C136.208 49.6006 135.666 49.4001 135.002 49.1923C134.263 48.9548 133.561 48.6876 132.897 48.3907C132.24 48.0939 131.658 47.7488 131.15 47.3553C130.65 46.9546 130.254 46.4908 129.963 45.9638C129.679 45.4369 129.537 44.8245 129.537 44.1269C129.537 43.4516 129.687 42.8392 129.985 42.29C130.284 41.7333 130.702 41.2583 131.24 40.865C131.777 40.4642 132.412 40.1562 133.143 39.9409C133.882 39.7258 134.692 39.6182 135.573 39.6182C136.775 39.6182 137.824 39.8333 138.72 40.2638C139.615 40.6943 140.31 41.2843 140.803 42.034C141.303 42.7835 141.553 43.6408 141.553 44.6057H138.216C138.216 44.1306 138.115 43.715 137.914 43.3588C137.719 42.995 137.421 42.7093 137.018 42.5015C136.622 42.2937 136.122 42.1897 135.517 42.1897C134.935 42.1897 134.45 42.2788 134.061 42.4569C133.673 42.6276 133.382 42.8615 133.188 43.1583C132.994 43.4477 132.897 43.7743 132.897 44.138C132.897 44.4126 132.964 44.6612 133.098 44.884C133.24 45.1066 133.449 45.3143 133.725 45.5074C134.002 45.7004 134.341 45.8822 134.744 46.0529C135.148 46.2236 135.614 46.3906 136.144 46.5538C137.033 46.821 137.813 47.1216 138.485 47.4557C139.164 47.7895 139.731 48.1643 140.187 48.58C140.642 48.9957 140.985 49.4669 141.217 49.9939C141.448 50.5208 141.564 51.1183 141.564 51.7862C141.564 52.4913 141.426 53.1222 141.15 53.6788C140.874 54.2355 140.474 54.7068 139.951 55.0927C139.429 55.4787 138.806 55.7718 138.081 55.9722C137.357 56.1725 136.547 56.2727 135.651 56.2727C134.845 56.2727 134.05 56.1688 133.266 55.9611C132.482 55.7459 131.77 55.423 131.128 54.9925C130.493 54.562 129.985 54.0128 129.605 53.3449C129.224 52.6769 129.033 51.8864 129.033 50.9736H132.404C132.404 51.4783 132.482 51.9049 132.639 52.2538C132.796 52.6026 133.016 52.8846 133.3 53.0999C133.591 53.3151 133.934 53.471 134.33 53.5675C134.733 53.664 135.174 53.7123 135.651 53.7123C136.234 53.7123 136.712 53.6306 137.085 53.4673C137.465 53.304 137.746 53.0777 137.925 52.7882C138.111 52.4987 138.205 52.1721 138.205 51.8085ZM149.581 44.0045V46.2755H142.527V44.0045H149.581ZM144.274 41.0319H147.499V52.4208C147.499 52.7696 147.544 53.0368 147.633 53.2224C147.731 53.4079 147.873 53.5379 148.059 53.6121C148.245 53.6788 148.48 53.7123 148.764 53.7123C148.966 53.7123 149.145 53.7049 149.302 53.69C149.466 53.6677 149.604 53.6454 149.716 53.6232L149.727 55.9833C149.451 56.0724 149.153 56.1429 148.832 56.1949C148.51 56.2468 148.156 56.2727 147.768 56.2727C147.058 56.2727 146.439 56.1577 145.909 55.9277C145.386 55.6902 144.983 55.3117 144.699 54.7921C144.415 54.2726 144.274 53.5897 144.274 52.7437V41.0319ZM150.612 50.1498V49.9159C150.612 49.0327 150.739 48.22 150.993 47.4779C151.247 46.7282 151.616 46.0788 152.101 45.5296C152.587 44.9804 153.183 44.5537 153.893 44.2494C154.602 43.9376 155.416 43.7817 156.334 43.7817C157.252 43.7817 158.069 43.9376 158.786 44.2494C159.503 44.5537 160.105 44.9804 160.589 45.5296C161.082 46.0788 161.455 46.7282 161.709 47.4779C161.962 48.22 162.09 49.0327 162.09 49.9159V50.1498C162.09 51.0256 161.962 51.8383 161.709 52.5878C161.455 53.3299 161.082 53.9795 160.589 54.5361C160.105 55.0853 159.507 55.512 158.798 55.8163C158.088 56.1207 157.275 56.2727 156.357 56.2727C155.438 56.2727 154.621 56.1207 153.904 55.8163C153.195 55.512 152.594 55.0853 152.101 54.5361C151.616 53.9795 151.247 53.3299 150.993 52.5878C150.739 51.8383 150.612 51.0256 150.612 50.1498ZM153.837 49.9159V50.1498C153.837 50.6544 153.881 51.1258 153.971 51.5637C154.06 52.0016 154.202 52.3874 154.397 52.7215C154.598 53.0479 154.86 53.304 155.181 53.4895C155.502 53.6751 155.894 53.7678 156.357 53.7678C156.804 53.7678 157.189 53.6751 157.51 53.4895C157.831 53.304 158.088 53.0479 158.283 52.7215C158.476 52.3874 158.618 52.0016 158.709 51.5637C158.805 51.1258 158.853 50.6544 158.853 50.1498V49.9159C158.853 49.4262 158.805 48.9659 158.709 48.5355C158.618 48.0976 158.472 47.7116 158.271 47.3777C158.077 47.0363 157.82 46.7691 157.499 46.5762C157.178 46.3831 156.789 46.2866 156.334 46.2866C155.879 46.2866 155.491 46.3831 155.17 46.5762C154.856 46.7691 154.598 47.0363 154.397 47.3777C154.202 47.7116 154.06 48.0976 153.971 48.5355C153.881 48.9659 153.837 49.4262 153.837 49.9159ZM167.297 46.6317V56.0501H164.072V44.0045H167.107L167.297 46.6317ZM170.948 43.9265L170.892 46.8989C170.734 46.8767 170.544 46.8582 170.32 46.8433C170.104 46.821 169.906 46.8099 169.727 46.8099C169.271 46.8099 168.875 46.8693 168.54 46.988C168.212 47.0994 167.935 47.2663 167.711 47.489C167.495 47.7116 167.33 47.9825 167.218 48.3017C167.114 48.6209 167.053 48.9845 167.039 49.3927L166.39 49.1923C166.39 48.413 166.469 47.6968 166.625 47.0437C166.781 46.3831 167.009 45.8079 167.309 45.3182C167.614 44.8282 167.988 44.4498 168.428 44.1826C168.868 43.9154 169.373 43.7817 169.939 43.7817C170.119 43.7817 170.301 43.7965 170.488 43.8263C170.676 43.8486 170.827 43.8819 170.948 43.9265ZM177.822 56.2727C176.882 56.2727 176.039 56.1244 175.292 55.8275C174.546 55.5232 173.911 55.1038 173.389 54.5694C172.873 54.035 172.477 53.4153 172.202 52.7102C171.925 51.9977 171.788 51.2407 171.788 50.4392V49.9939C171.788 49.081 171.918 48.246 172.179 47.489C172.44 46.7319 172.814 46.0751 173.299 45.5185C173.792 44.9619 174.389 44.5351 175.09 44.2382C175.793 43.9339 176.584 43.7817 177.464 43.7817C178.322 43.7817 179.085 43.9228 179.749 44.2048C180.414 44.4868 180.97 44.8877 181.417 45.4071C181.873 45.9266 182.217 46.5501 182.447 47.2775C182.68 47.9974 182.794 48.799 182.794 49.6821V51.0182H173.164V48.8807H179.625V48.6357C179.625 48.1904 179.544 47.7932 179.379 47.4444C179.223 47.0882 178.983 46.8061 178.662 46.5984C178.341 46.3906 177.931 46.2866 177.431 46.2866C177.005 46.2866 176.64 46.3794 176.333 46.565C176.028 46.7506 175.777 47.0102 175.583 47.3442C175.397 47.6782 175.255 48.0715 175.158 48.5244C175.069 48.9696 175.023 49.4595 175.023 49.9939V50.4392C175.023 50.9215 175.09 51.3669 175.225 51.7751C175.367 52.1834 175.565 52.5359 175.818 52.8328C176.079 53.1296 176.393 53.3597 176.759 53.523C177.133 53.6862 177.554 53.7678 178.024 53.7678C178.606 53.7678 179.148 53.6566 179.648 53.434C180.156 53.2038 180.593 52.8587 180.958 52.3986L182.526 54.0907C182.273 54.4544 181.924 54.8033 181.484 55.1373C181.051 55.4713 180.53 55.7459 179.916 55.9611C179.304 56.1688 178.606 56.2727 177.822 56.2727Z" fill="black"/>
<path d="M90.8711 26.6094H91.9041C91.8201 27.4277 91.5934 28.1347 91.2238 28.7302C90.8543 29.3203 90.3505 29.7739 89.7121 30.0912C89.0738 30.4086 88.304 30.5672 87.4026 30.5672C86.7083 30.5672 86.0785 30.4363 85.513 30.1747C84.953 29.9131 84.4716 29.5429 84.0684 29.0642C83.6653 28.58 83.3545 28.001 83.1363 27.3276C82.9178 26.654 82.8086 25.9053 82.8086 25.0815V23.5619C82.8086 22.7379 82.9178 21.9921 83.1363 21.3242C83.3545 20.6506 83.668 20.0717 84.0768 19.5874C84.4856 19.1032 84.9755 18.7301 85.5465 18.4686C86.1176 18.207 86.7614 18.0762 87.4781 18.0762C88.346 18.0762 89.0963 18.2348 89.729 18.552C90.3617 18.8638 90.8599 19.3146 91.2238 19.9047C91.5934 20.4947 91.8201 21.2072 91.9041 22.0422H90.8711C90.7928 21.3853 90.6193 20.8287 90.3505 20.3723C90.0818 19.9158 89.7094 19.5679 89.2335 19.3286C88.7631 19.0836 88.178 18.9612 87.4781 18.9612C86.9071 18.9612 86.3975 19.0697 85.9496 19.2869C85.5017 19.5039 85.121 19.8157 84.8075 20.2219C84.4939 20.6228 84.2531 21.1043 84.0853 21.6665C83.9229 22.2286 83.8416 22.8549 83.8416 23.5452V25.0815C83.8416 25.7494 83.92 26.3645 84.0768 26.9267C84.2336 27.4889 84.4631 27.9759 84.7655 28.3879C85.0734 28.7999 85.4485 29.1199 85.8908 29.3481C86.3332 29.5764 86.8371 29.6905 87.4026 29.6905C88.1248 29.6905 88.7267 29.5764 89.2083 29.3481C89.6953 29.1144 90.0733 28.7692 90.3421 28.3128C90.6108 27.8562 90.7871 27.2885 90.8711 26.6094ZM95.2551 21.3659V30.4001H94.2473V21.3659H95.2551ZM101.235 21.3659L97.0693 26.2588H94.9023L94.7933 25.3653H96.6408L99.9666 21.3659H101.235ZM100.328 30.4001L96.5401 26.1251L97.1783 25.3569L101.655 30.4001H100.328ZM108.634 28.7803V24.1213C108.634 23.6927 108.544 23.3225 108.365 23.0108C108.186 22.699 107.923 22.4596 107.576 22.2926C107.228 22.1257 106.8 22.0422 106.291 22.0422C105.82 22.0422 105.401 22.1257 105.031 22.2926C104.667 22.4541 104.379 22.6739 104.166 22.9522C103.959 23.225 103.855 23.5284 103.855 23.8624L102.847 23.854C102.847 23.5145 102.931 23.1861 103.099 22.8687C103.267 22.5515 103.505 22.2677 103.813 22.0172C104.121 21.7666 104.488 21.569 104.913 21.4244C105.344 21.274 105.818 21.1989 106.333 21.1989C106.982 21.1989 107.553 21.3074 108.046 21.5245C108.544 21.7416 108.933 22.0672 109.213 22.5014C109.493 22.9356 109.633 23.4811 109.633 24.138V28.5048C109.633 28.8165 109.656 29.1393 109.701 29.4733C109.751 29.8073 109.821 30.0828 109.91 30.3V30.4001H108.844C108.777 30.1998 108.723 29.9493 108.684 29.6487C108.651 29.3425 108.634 29.0531 108.634 28.7803ZM108.869 25.1399L108.886 25.9081H106.912C106.397 25.9081 105.935 25.9554 105.526 26.05C105.123 26.1391 104.782 26.2726 104.502 26.4508C104.222 26.6233 104.006 26.8321 103.855 27.077C103.71 27.3219 103.637 27.6003 103.637 27.912C103.637 28.2349 103.718 28.5298 103.88 28.797C104.048 29.0642 104.284 29.2785 104.586 29.44C104.894 29.5957 105.258 29.6737 105.678 29.6737C106.237 29.6737 106.73 29.5708 107.156 29.3647C107.587 29.1588 107.942 28.8889 108.222 28.5549C108.502 28.2209 108.69 27.8562 108.785 27.4611L109.222 28.0372C109.149 28.3155 109.015 28.6022 108.819 28.8972C108.628 29.1866 108.379 29.4594 108.071 29.7154C107.763 29.9659 107.399 30.1719 106.979 30.3333C106.565 30.4892 106.095 30.5672 105.568 30.5672C104.975 30.5672 104.457 30.4559 104.015 30.2331C103.578 30.0105 103.236 29.7072 102.99 29.323C102.749 28.9334 102.629 28.4936 102.629 28.0039C102.629 27.5586 102.724 27.1605 102.915 26.8099C103.105 26.4536 103.379 26.1529 103.738 25.9081C104.101 25.6576 104.538 25.4684 105.048 25.3403C105.563 25.2067 106.14 25.1399 106.778 25.1399H108.869ZM118.788 21.3659V30.4001H117.788V21.3659H118.788ZM118.443 25.4655V26.3255C118.186 26.448 117.889 26.5649 117.553 26.6762C117.223 26.7875 116.873 26.8794 116.503 26.9518C116.139 27.0186 115.775 27.052 115.411 27.052C114.661 27.052 114.026 26.9434 113.505 26.7264C112.99 26.5092 112.601 26.1529 112.338 25.6576C112.074 25.1566 111.943 24.4887 111.943 23.6536V21.3575H112.942V23.6536C112.942 24.2937 113.032 24.8003 113.211 25.1732C113.39 25.5406 113.662 25.8022 114.026 25.9581C114.39 26.114 114.851 26.192 115.411 26.192C115.798 26.1809 116.181 26.1418 116.562 26.075C116.943 26.0027 117.295 25.9137 117.62 25.8078C117.95 25.6965 118.225 25.5824 118.443 25.4655ZM127.01 28.7803V24.1213C127.01 23.6927 126.92 23.3225 126.741 23.0108C126.562 22.699 126.299 22.4596 125.951 22.2926C125.604 22.1257 125.176 22.0422 124.667 22.0422C124.196 22.0422 123.776 22.1257 123.407 22.2926C123.043 22.4541 122.754 22.6739 122.542 22.9522C122.334 23.225 122.231 23.5284 122.231 23.8624L121.223 23.854C121.223 23.5145 121.307 23.1861 121.475 22.8687C121.643 22.5515 121.881 22.2677 122.189 22.0172C122.497 21.7666 122.864 21.569 123.289 21.4244C123.72 21.274 124.193 21.1989 124.709 21.1989C125.358 21.1989 125.929 21.3074 126.422 21.5245C126.92 21.7416 127.309 22.0672 127.589 22.5014C127.869 22.9356 128.009 23.4811 128.009 24.138V28.5048C128.009 28.8165 128.031 29.1393 128.076 29.4733C128.127 29.8073 128.197 30.0828 128.286 30.3V30.4001H127.22C127.152 30.1998 127.099 29.9493 127.06 29.6487C127.026 29.3425 127.01 29.0531 127.01 28.7803ZM127.245 25.1399L127.262 25.9081H125.288C124.773 25.9081 124.311 25.9554 123.902 26.05C123.499 26.1391 123.158 26.2726 122.878 26.4508C122.598 26.6233 122.382 26.8321 122.231 27.077C122.085 27.3219 122.013 27.6003 122.013 27.912C122.013 28.2349 122.094 28.5298 122.256 28.797C122.424 29.0642 122.659 29.2785 122.962 29.44C123.27 29.5957 123.634 29.6737 124.053 29.6737C124.613 29.6737 125.106 29.5708 125.532 29.3647C125.963 29.1588 126.318 28.8889 126.598 28.5549C126.878 28.2209 127.066 27.8562 127.161 27.4611L127.598 28.0372C127.525 28.3155 127.39 28.6022 127.194 28.8972C127.004 29.1866 126.755 29.4594 126.447 29.7154C126.139 29.9659 125.775 30.1719 125.355 30.3333C124.941 30.4892 124.47 30.5672 123.944 30.5672C123.351 30.5672 122.833 30.4559 122.391 30.2331C121.954 30.0105 121.612 29.7072 121.366 29.323C121.125 28.9334 121.005 28.4936 121.005 28.0039C121.005 27.5586 121.1 27.1605 121.29 26.8099C121.481 26.4536 121.755 26.1529 122.113 25.9081C122.477 25.6576 122.914 25.4684 123.424 25.3403C123.939 25.2067 124.515 25.1399 125.154 25.1399H127.245ZM131.763 28.7803L136.676 21.3659H137.684V30.4001H136.676V22.9857L131.763 30.4001H130.772V21.3659H131.763V28.7803ZM135.752 18.1262H136.609C136.609 18.5437 136.511 18.9139 136.315 19.2367C136.125 19.5596 135.848 19.8128 135.484 19.9965C135.12 20.1802 134.689 20.2721 134.19 20.2721C133.44 20.2721 132.847 20.0717 132.41 19.6709C131.979 19.2702 131.763 18.7552 131.763 18.1262H132.611C132.611 18.5102 132.729 18.8442 132.964 19.1281C133.205 19.4066 133.614 19.5456 134.19 19.5456C134.75 19.5456 135.15 19.4037 135.391 19.1198C135.632 18.836 135.752 18.5047 135.752 18.1262ZM143.589 21.3659V30.4001H142.589V21.3659H143.589ZM146.897 21.3659V22.2175H139.397V21.3659H146.897ZM151.399 30.5672C150.805 30.5672 150.259 30.4586 149.76 30.2415C149.269 30.0244 148.837 29.7183 148.468 29.323C148.104 28.9278 147.821 28.4603 147.619 27.9204C147.424 27.3749 147.325 26.7792 147.325 26.1336V25.7745C147.325 25.0786 147.428 24.4496 147.636 23.8875C147.843 23.3253 148.129 22.8438 148.493 22.4429C148.857 22.0422 149.272 21.736 149.736 21.5245C150.206 21.3074 150.699 21.1989 151.214 21.1989C151.79 21.1989 152.303 21.3018 152.75 21.5079C153.199 21.7082 153.575 21.9949 153.876 22.3678C154.184 22.7352 154.416 23.1721 154.574 23.6787C154.73 24.1797 154.809 24.7335 154.809 25.3403V25.9499H147.93V25.0981H153.81V24.9813C153.798 24.4747 153.695 24.0016 153.499 23.5619C153.308 23.1165 153.023 22.7547 152.641 22.4764C152.262 22.198 151.784 22.0589 151.214 22.0589C150.788 22.0589 150.397 22.148 150.039 22.3261C149.686 22.5042 149.381 22.7603 149.123 23.0942C148.87 23.4226 148.675 23.8151 148.535 24.2715C148.4 24.7224 148.333 25.2234 148.333 25.7745V26.1336C148.333 26.6344 148.406 27.102 148.552 27.5362C148.703 27.9648 148.916 28.3433 149.19 28.6718C149.469 29.0002 149.801 29.2563 150.18 29.44C150.562 29.6237 150.982 29.7154 151.44 29.7154C151.978 29.7154 152.454 29.6181 152.868 29.4233C153.282 29.2228 153.655 28.9083 153.986 28.4797L154.615 28.964C154.419 29.2534 154.172 29.5206 153.876 29.7656C153.585 30.0106 153.235 30.2053 152.826 30.35C152.418 30.4948 151.942 30.5672 151.399 30.5672ZM165.004 26.2337H161.813L161.796 25.3987H164.517C165.066 25.3987 165.521 25.3403 165.885 25.2234C166.255 25.1009 166.533 24.92 166.717 24.6806C166.907 24.4414 167.003 24.1462 167.003 23.7956C167.003 23.5284 166.948 23.2947 166.834 23.0942C166.728 22.8938 166.566 22.7297 166.348 22.6015C166.135 22.4736 165.867 22.379 165.541 22.3177C165.222 22.2509 164.851 22.2175 164.425 22.2175H162.099V30.4001H161.1V21.3659H164.425C164.98 21.3659 165.474 21.4159 165.911 21.5161C166.354 21.6107 166.731 21.7555 167.045 21.9503C167.359 22.1451 167.597 22.3956 167.759 22.7019C167.927 23.0024 168.011 23.3586 168.011 23.7706C168.011 24.0489 167.958 24.3105 167.851 24.5554C167.744 24.7948 167.588 25.0119 167.38 25.2067C167.18 25.396 166.93 25.5519 166.634 25.6743C166.337 25.7911 165.996 25.8635 165.609 25.8913L165.004 26.2337ZM165.004 30.4001H161.502L161.888 29.5484H165.004C165.508 29.5484 165.937 29.4844 166.29 29.3565C166.642 29.2284 166.907 29.0391 167.087 28.7886C167.271 28.5382 167.365 28.2349 167.365 27.8786C167.365 27.5446 167.271 27.2552 167.087 27.0102C166.907 26.7653 166.642 26.576 166.29 26.4425C165.937 26.3033 165.508 26.2337 165.004 26.2337H162.686L162.703 25.3987H165.685L166.113 25.716C166.572 25.7549 166.969 25.8775 167.306 26.0834C167.641 26.2893 167.902 26.5509 168.087 26.8683C168.271 27.1799 168.364 27.5224 168.364 27.8953C168.364 28.3071 168.285 28.6718 168.129 28.9891C167.971 29.3008 167.744 29.5624 167.448 29.7739C167.157 29.9799 166.804 30.1358 166.39 30.2415C165.976 30.3473 165.514 30.4001 165.004 30.4001Z" fill="black"/>
</svg>
