<svg width="215" height="75" viewBox="0 0 215 75" fill="none" xmlns="http://www.w3.org/2000/svg">
<g clip-path="url(#clip0_17_392)">
<path d="M202.1 0.328247H15.7664C7.85035 0.328247 1.43311 6.6777 1.43311 14.5102V59.8922C1.43311 67.7246 7.85035 74.0742 15.7664 74.0742H202.1C210.016 74.0742 216.433 67.7246 216.433 59.8922V14.5102C216.433 6.6777 210.016 0.328247 202.1 0.328247Z" fill="white"/>
<path d="M60.2 4.58289H17.1999C10.8671 4.58289 5.73328 9.66245 5.73328 15.9284V58.4741C5.73328 64.7401 10.8671 69.8197 17.1999 69.8197H60.2C66.5328 69.8197 71.6666 64.7401 71.6666 58.4741V15.9284C71.6666 9.66245 66.5328 4.58289 60.2 4.58289Z" fill="#1FE5B4"/>
<path d="M50.1666 4.58289H18.6333C11.5088 4.58289 5.73328 10.2974 5.73328 17.3466V48.5468C5.73328 55.596 11.5088 61.3105 18.6333 61.3105H50.1666C57.2911 61.3105 63.0666 55.596 63.0666 48.5468V17.3466C63.0666 10.2974 57.2911 4.58289 50.1666 4.58289Z" fill="#1FE5B4"/>
<path d="M59.4695 45.029L43.3558 38.4766C42.2584 39.6873 41.0971 40.9156 39.8721 42.1616L51.8034 46.9728C52.2394 47.2191 52.7073 47.407 53.1943 47.5314C53.832 47.6989 54.4896 47.7829 55.15 47.781C57.7022 47.781 59.7566 46.614 59.8459 45.1538C59.7214 45.1164 59.5907 45.0789 59.4695 45.029Z" fill="white"/>
<path d="M34.7226 34.9695C26.9992 45.2817 22.415 51.8342 21.6428 53.7187C21.4291 54.1372 21.2981 54.5913 21.2568 55.0573C21.4387 55.0386 21.895 54.92 22.9254 54.3397C23.7643 53.8623 24.632 53.3255 25.5828 52.6922L25.8826 52.4925L32.1833 55.0292L32.3205 55.0854C32.4863 55.1478 32.6395 55.2102 32.8309 55.2663C35.096 55.9683 37.0163 55.4192 37.3163 54.4863C37.6162 53.5533 36.5155 52.3022 34.8215 51.5846L34.7514 51.5565C34.6588 51.5159 34.5663 51.4785 34.4706 51.4442L29.8161 49.597L30.6647 48.8981C32.8978 47.0259 35.2043 44.9448 37.5587 42.6296C39.1729 41.0446 40.6692 39.4782 42.0632 37.9492L34.7226 34.9695Z" fill="white"/>
<path d="M59.9757 43.8185C60.7395 44.1075 61.5525 44.2516 62.3715 44.243C64.7481 44.243 66.407 43.1539 66.407 42.1742C66.407 41.5222 65.718 40.8699 64.6078 40.4706H64.5791L22.3187 23.2971C22.1123 23.1967 21.899 23.1102 21.6806 23.0382C20.9894 22.8131 20.2653 22.7002 19.5367 22.7043C17.157 22.7043 15.5012 23.7932 15.5012 24.7729C15.5012 25.4345 16.2349 26.1115 17.3738 26.5015L34.2627 33.366L35.5388 33.8808L42.9879 36.9105L44.2927 37.4409L59.9757 43.8185Z" fill="white"/>
<path d="M18.0163 33.3532C18.3418 33.5231 18.6838 33.6611 19.0371 33.765L30.308 38.3081C31.4628 36.8353 32.5411 35.4999 33.3993 34.4329L19.5316 28.7946C17.7451 29.1816 16.4753 30.1737 16.4753 31.3406C16.4753 32.1301 17.0593 32.8384 17.9875 33.3376L18.0163 33.3532Z" fill="white"/>
<path d="M47.8601 32.2551C48.0228 32.0554 48.1152 31.9431 48.1152 31.9431C48.6353 31.2847 49.7359 29.8494 49.5254 28.1271C49.2351 25.7245 46.4149 23.0255 43.6968 23.5998C42.0763 23.9398 41.1448 25.3095 40.8481 25.7838C40.2292 26.5951 39.5145 27.5342 38.7394 28.5576L47.8601 32.2551Z" fill="white"/>
<path d="M23.7618 47.1944L21.5892 46.3302C21.1475 46.0797 20.6789 45.8778 20.1919 45.728C19.2065 45.3966 18.1492 45.3245 17.1261 45.519C16.3701 45.6906 15.8502 46.0494 15.7034 46.508C15.4163 47.4003 16.4467 48.6298 18.1024 49.3661C18.246 49.4316 18.3959 49.4909 18.549 49.5471L21.5478 50.7547C22.1475 49.6781 22.9068 48.4675 23.7618 47.1944Z" fill="white"/>
<path d="M86.5404 18.0112V30.1101H85.5157V18.8919H78.587V30.1101H77.554V18.0112H86.5404ZM90.454 22.8474V33.5669H89.4462V21.1191H90.3867L90.454 22.8474ZM96.7697 25.5315V25.7059C96.7697 26.3763 96.6913 26.9912 96.5344 27.5507C96.3776 28.1102 96.1509 28.5949 95.8542 29.0049C95.5631 29.4094 95.2019 29.7224 94.7707 29.9439C94.3397 30.1656 93.8498 30.2763 93.3011 30.2763C92.7579 30.2763 92.2737 30.1932 91.8482 30.027C91.4226 29.8608 91.0558 29.6254 90.7479 29.3207C90.4456 29.0104 90.202 28.6504 90.0172 28.2404C89.8381 27.825 89.7121 27.3707 89.6394 26.8776V24.5759C89.7234 24.0329 89.8606 23.5399 90.0509 23.0967C90.2412 22.6535 90.4848 22.2713 90.7815 21.95C91.0839 21.6286 91.4422 21.3821 91.8565 21.2104C92.2709 21.0386 92.744 20.9528 93.2759 20.9528C93.8302 20.9528 94.3228 21.0608 94.754 21.2769C95.1907 21.4874 95.5575 21.7948 95.8542 22.1993C96.1565 22.5981 96.3832 23.0801 96.5344 23.6451C96.6913 24.2046 96.7697 24.8334 96.7697 25.5315ZM95.7617 25.7059V25.5315C95.7617 25.0052 95.7058 24.5176 95.5939 24.0689C95.4874 23.6202 95.3223 23.2296 95.0984 22.8973C94.88 22.5594 94.6 22.2962 94.2585 22.1078C93.9225 21.9195 93.5222 21.8253 93.0575 21.8253C92.576 21.8253 92.1645 21.9056 91.8229 22.0663C91.487 22.2214 91.207 22.4292 90.9831 22.6896C90.7591 22.9444 90.5828 23.2241 90.454 23.5288C90.3252 23.8335 90.2301 24.1327 90.1684 24.4263V27.077C90.2748 27.4981 90.4456 27.8886 90.6807 28.2487C90.9159 28.6033 91.2294 28.8886 91.6214 29.1046C92.0189 29.3152 92.5032 29.4204 93.0742 29.4204C93.5335 29.4204 93.9309 29.3263 94.2669 29.1379C94.6029 28.9495 94.88 28.6864 95.0984 28.3484C95.3223 28.0105 95.4874 27.6172 95.5939 27.1685C95.7058 26.7198 95.7617 26.2322 95.7617 25.7059ZM100.062 28.498L104.975 21.1191H105.983V30.1101H104.975V22.7311L100.062 30.1101H99.0707V21.1191H100.062V28.498ZM112.03 29.4204C112.455 29.4204 112.853 29.3429 113.222 29.1877C113.597 29.027 113.905 28.7916 114.146 28.4815C114.392 28.1656 114.532 27.7806 114.566 27.3263H115.523C115.495 27.897 115.319 28.4066 114.994 28.8553C114.675 29.2985 114.255 29.6475 113.734 29.9023C113.219 30.1517 112.651 30.2763 112.03 30.2763C111.397 30.2763 110.837 30.1627 110.35 29.9357C109.868 29.7085 109.465 29.3926 109.14 28.9883C108.816 28.5783 108.569 28.1019 108.401 27.5591C108.239 27.0106 108.158 26.4205 108.158 25.789V25.44C108.158 24.8085 108.239 24.2213 108.401 23.6783C108.569 23.1299 108.816 22.6535 109.14 22.2491C109.465 21.8392 109.868 21.5207 110.35 21.2935C110.831 21.0663 111.389 20.9528 112.021 20.9528C112.671 20.9528 113.253 21.083 113.768 21.3434C114.289 21.6038 114.703 21.9721 115.011 22.4486C115.325 22.925 115.495 23.49 115.523 24.1438H114.566C114.538 23.6617 114.409 23.2463 114.18 22.8973C113.95 22.5483 113.648 22.2796 113.272 22.0912C112.897 21.9029 112.48 21.8087 112.021 21.8087C111.506 21.8087 111.067 21.9084 110.703 22.1078C110.339 22.3017 110.042 22.5704 109.812 22.9139C109.588 23.2519 109.423 23.6396 109.317 24.0773C109.211 24.5094 109.157 24.9636 109.157 25.44V25.789C109.157 26.2711 109.208 26.7308 109.308 27.1685C109.415 27.6006 109.58 27.9857 109.804 28.3235C110.034 28.6614 110.33 28.9302 110.694 29.1296C111.064 29.3234 111.509 29.4204 112.03 29.4204ZM116.993 25.7558V25.4816C116.993 24.8279 117.088 24.224 117.279 23.6701C117.469 23.1162 117.74 22.6369 118.093 22.2325C118.452 21.8282 118.88 21.5152 119.378 21.2935C119.877 21.0663 120.431 20.9528 121.041 20.9528C121.657 20.9528 122.214 21.0663 122.712 21.2935C123.211 21.5152 123.639 21.8282 123.997 22.2325C124.356 22.6369 124.63 23.1162 124.82 23.6701C125.011 24.224 125.106 24.8279 125.106 25.4816V25.7558C125.106 26.4095 125.011 27.0133 124.82 27.5673C124.63 28.1158 124.356 28.5922 123.997 28.9965C123.645 29.401 123.219 29.7168 122.721 29.9439C122.223 30.1656 121.668 30.2763 121.058 30.2763C120.442 30.2763 119.885 30.1656 119.387 29.9439C118.888 29.7168 118.46 29.401 118.102 28.9965C117.743 28.5922 117.469 28.1158 117.279 27.5673C117.088 27.0133 116.993 26.4095 116.993 25.7558ZM117.992 25.4816V25.7558C117.992 26.2488 118.06 26.7169 118.194 27.1601C118.328 27.5978 118.524 27.9883 118.782 28.3318C119.04 28.6698 119.359 28.9357 119.739 29.1296C120.12 29.3234 120.56 29.4204 121.058 29.4204C121.551 29.4204 121.985 29.3234 122.36 29.1296C122.74 28.9357 123.06 28.6698 123.317 28.3318C123.575 27.9883 123.768 27.5978 123.897 27.1601C124.031 26.7169 124.098 26.2488 124.098 25.7558V25.4816C124.098 24.9941 124.031 24.5315 123.897 24.0939C123.768 23.6562 123.572 23.2656 123.309 22.9221C123.051 22.5788 122.732 22.3072 122.351 22.1078C121.971 21.9084 121.534 21.8087 121.041 21.8087C120.548 21.8087 120.112 21.9084 119.731 22.1078C119.356 22.3072 119.037 22.5788 118.773 22.9221C118.516 23.2656 118.32 23.6562 118.186 24.0939C118.057 24.5315 117.992 24.9941 117.992 25.4816ZM130.699 30.2763C130.106 30.2763 129.56 30.1682 129.062 29.9523C128.569 29.7361 128.138 29.4315 127.768 29.0381C127.404 28.6448 127.122 28.1795 126.92 27.6422C126.724 27.0993 126.626 26.5065 126.626 25.8639V25.5065C126.626 24.814 126.73 24.188 126.937 23.6285C127.144 23.0691 127.43 22.5899 127.793 22.1909C128.157 21.7921 128.572 21.4874 129.036 21.2769C129.507 21.0608 129.999 20.9528 130.514 20.9528C131.091 20.9528 131.604 21.0552 132.051 21.2603C132.499 21.4597 132.874 21.745 133.177 22.1162C133.485 22.4818 133.717 22.9166 133.874 23.4208C134.031 23.9194 134.109 24.4705 134.109 25.0744V25.6811H127.231V24.8334H133.11V24.7171C133.098 24.213 132.995 23.7421 132.799 23.3045C132.609 22.8613 132.323 22.5012 131.942 22.2243C131.562 21.9471 131.086 21.8087 130.514 21.8087C130.089 21.8087 129.697 21.8974 129.339 22.0746C128.986 22.2519 128.681 22.5068 128.423 22.839C128.171 23.1659 127.975 23.5565 127.835 24.0107C127.701 24.4595 127.634 24.9581 127.634 25.5065V25.8639C127.634 26.3624 127.707 26.8277 127.852 27.2598C128.003 27.6864 128.216 28.0631 128.49 28.39C128.77 28.7169 129.101 28.9717 129.481 29.1545C129.862 29.3373 130.282 29.4287 130.741 29.4287C131.279 29.4287 131.755 29.3318 132.169 29.1379C132.583 28.9384 132.956 28.6254 133.286 28.1988L133.916 28.6809C133.72 28.9689 133.474 29.2348 133.177 29.4786C132.886 29.7224 132.536 29.9162 132.127 30.0602C131.718 30.2043 131.242 30.2763 130.699 30.2763ZM137.704 21.1191H138.703L138.552 24.3598C138.513 25.224 138.415 25.9747 138.258 26.6117C138.107 27.2432 137.919 27.7834 137.695 28.2321C137.471 28.6753 137.225 29.0493 136.956 29.3539C136.693 29.653 136.424 29.9052 136.15 30.1101H135.604L135.621 29.2624L135.873 29.2542C136.035 29.0604 136.203 28.8415 136.377 28.5977C136.556 28.3484 136.727 28.0438 136.889 27.6837C137.051 27.3236 137.191 26.8749 137.309 26.3374C137.426 25.8001 137.505 25.1409 137.544 24.3598L137.704 21.1191ZM138.031 21.1191H143.062V30.1101H142.062V22.0497H138.031V21.1191ZM135.218 29.2542H144.011V32.7526H143.003V30.1101H136.175V32.7526H135.218V29.2542ZM147.008 28.498L151.922 21.1191H152.93V30.1101H151.922V22.7311L147.008 30.1101H146.018V21.1191H147.008V28.498ZM161.823 25.1409V25.9886H156.433V25.1409H161.823ZM156.692 21.1191V30.1101H155.693V21.1191H156.692ZM162.596 21.1191V30.1101H161.588V21.1191H162.596ZM166.358 28.498L171.272 21.1191H172.28V30.1101H171.272V22.7311L166.358 30.1101H165.368V21.1191H166.358V28.498ZM178.183 21.1191V30.1101H177.184V21.1191H178.183ZM181.493 21.1191V21.9666H173.994V21.1191H181.493ZM183.904 24.3764H186.868C187.585 24.3764 188.19 24.501 188.683 24.7503C189.174 24.9941 189.547 25.3321 189.799 25.7641C190.057 26.1962 190.186 26.6838 190.186 27.2266C190.186 27.6366 190.113 28.0188 189.967 28.3734C189.828 28.7224 189.614 29.027 189.329 29.2874C189.05 29.5478 188.701 29.75 188.287 29.8941C187.879 30.0381 187.406 30.1101 186.868 30.1101H183.265V21.1191H184.265V29.2542H186.868C187.423 29.2542 187.87 29.1601 188.212 28.9717C188.554 28.7777 188.8 28.5285 188.951 28.2238C189.108 27.9191 189.186 27.5951 189.186 27.2516C189.186 26.9136 189.108 26.5923 188.951 26.2877C188.8 25.9774 188.554 25.7253 188.212 25.5315C187.87 25.3321 187.423 25.2322 186.868 25.2322H183.904V24.3764ZM195.712 29.4204C196.137 29.4204 196.534 29.3429 196.904 29.1877C197.28 29.027 197.588 28.7916 197.829 28.4815C198.074 28.1656 198.214 27.7806 198.247 27.3263H199.205C199.177 27.897 199.001 28.4066 198.676 28.8553C198.358 29.2985 197.938 29.6475 197.416 29.9023C196.901 30.1517 196.334 30.2763 195.712 30.2763C195.08 30.2763 194.519 30.1627 194.032 29.9357C193.55 29.7085 193.147 29.3926 192.822 28.9883C192.498 28.5783 192.252 28.1019 192.084 27.5591C191.92 27.0106 191.84 26.4205 191.84 25.789V25.44C191.84 24.8085 191.92 24.2213 192.084 23.6783C192.252 23.1299 192.498 22.6535 192.822 22.2491C193.147 21.8392 193.55 21.5207 194.032 21.2935C194.513 21.0663 195.071 20.9528 195.703 20.9528C196.352 20.9528 196.934 21.083 197.45 21.3434C197.971 21.6038 198.385 21.9721 198.693 22.4486C199.007 22.925 199.177 23.49 199.205 24.1438H198.247C198.22 23.6617 198.091 23.2463 197.862 22.8973C197.632 22.5483 197.33 22.2796 196.954 22.0912C196.579 21.9029 196.162 21.8087 195.703 21.8087C195.188 21.8087 194.748 21.9084 194.384 22.1078C194.02 22.3017 193.724 22.5704 193.494 22.9139C193.271 23.2519 193.106 23.6396 192.998 24.0773C192.892 24.5094 192.839 24.9636 192.839 25.44V25.789C192.839 26.2711 192.889 26.7308 192.991 27.1685C193.097 27.6006 193.262 27.9857 193.486 28.3235C193.715 28.6614 194.012 28.9302 194.376 29.1296C194.746 29.3234 195.191 29.4204 195.712 29.4204ZM203.211 25.9886H204.32L201.8 30.1101H200.693L203.211 25.9886ZM204.279 21.1191H207.848V30.1101H206.847V21.9666H204.279C203.746 21.9666 203.313 22.0552 202.976 22.2325C202.646 22.4042 202.402 22.6314 202.246 22.9139C202.094 23.1964 202.018 23.4984 202.018 23.8197C202.018 24.1243 202.086 24.4152 202.22 24.6922C202.361 24.9692 202.576 25.1964 202.867 25.3736C203.158 25.5452 203.536 25.6312 204.001 25.6312H207.208V26.487H204.001C203.525 26.487 203.102 26.4205 202.732 26.2877C202.364 26.1546 202.05 25.9691 201.792 25.7309C201.54 25.4871 201.348 25.2019 201.213 24.875C201.084 24.5426 201.019 24.1853 201.019 23.803C201.019 23.4152 201.09 23.0607 201.23 22.7393C201.375 22.4126 201.585 22.1272 201.859 21.8835C202.139 21.6397 202.481 21.4513 202.884 21.3185C203.293 21.1854 203.757 21.1191 204.279 21.1191Z" fill="black"/>
<path d="M81.8896 50.1505H78.8053L78.7871 48.4491H81.3346C81.6743 48.4491 81.9502 48.4161 82.1626 48.35C82.3749 48.2779 82.5296 48.173 82.6266 48.035C82.7297 47.8909 82.7813 47.7169 82.7813 47.5128C82.7813 47.3327 82.7479 47.1797 82.6812 47.0538C82.6206 46.9217 82.5266 46.8137 82.3991 46.7297C82.2717 46.6456 82.111 46.5856 81.917 46.5496C81.7289 46.5076 81.5075 46.4866 81.2528 46.4866H79.7789V54.2195H77.1584V44.479H81.2528C81.8958 44.479 82.472 44.5361 82.9814 44.6501C83.4909 44.7581 83.9246 44.9232 84.2825 45.1453C84.6465 45.3673 84.9224 45.6493 85.1104 45.9914C85.3045 46.3275 85.4015 46.7266 85.4015 47.1888C85.4015 47.4889 85.3319 47.7709 85.1923 48.035C85.0588 48.2991 84.8587 48.5331 84.5919 48.7372C84.325 48.9412 83.9943 49.1091 83.6001 49.2412C83.212 49.3673 82.7631 49.4453 82.2535 49.4753L81.8896 50.1505ZM81.8896 54.2195H78.1593L79.06 52.212H81.8896C82.2111 52.212 82.475 52.173 82.6812 52.095C82.8875 52.0169 83.039 51.9028 83.1362 51.7528C83.2392 51.5968 83.2908 51.4107 83.2908 51.1947C83.2908 50.9847 83.2452 50.8016 83.1542 50.6456C83.0633 50.4896 82.9147 50.3695 82.7085 50.2855C82.5084 50.1955 82.2353 50.1505 81.8896 50.1505H79.4422L79.4604 48.4491H82.2445L82.8813 49.1333C83.5728 49.1752 84.1429 49.3043 84.5919 49.5203C85.0406 49.7364 85.3713 50.0124 85.5836 50.3485C85.8019 50.6787 85.9111 51.0417 85.9111 51.4378C85.9111 51.8999 85.8231 52.305 85.6472 52.6531C85.4713 53.0012 85.2105 53.2922 84.8648 53.5262C84.5251 53.7543 84.1065 53.9284 83.6092 54.0484C83.1118 54.1624 82.5386 54.2195 81.8896 54.2195ZM98.7852 44.479V46.5136H94.0177V44.479H98.7852ZM94.7728 44.479V54.2195H92.1525V44.479H94.7728ZM100.696 44.479V54.2195H98.0665V44.479H100.696ZM105.336 46.3515V57.9643H102.716V44.479H105.145L105.336 46.3515ZM111.568 49.2412V49.4302C111.568 50.1385 111.483 50.7957 111.313 51.4018C111.15 52.0079 110.907 52.5361 110.586 52.9862C110.264 53.4302 109.864 53.7784 109.385 54.0304C108.912 54.2765 108.366 54.3996 107.747 54.3996C107.147 54.3996 106.625 54.2794 106.182 54.0393C105.739 53.7994 105.366 53.4633 105.063 53.0312C104.766 52.5931 104.526 52.0859 104.344 51.5099C104.162 50.9336 104.023 50.3155 103.926 49.6553V49.1602C104.023 48.4521 104.162 47.8038 104.344 47.2157C104.526 46.6216 104.766 46.1085 105.063 45.6764C105.366 45.2383 105.736 44.8993 106.173 44.6592C106.616 44.4191 107.134 44.2991 107.729 44.2991C108.354 44.2991 108.902 44.4161 109.376 44.6501C109.855 44.8842 110.255 45.2203 110.577 45.6584C110.904 46.0965 111.15 46.6187 111.313 47.2248C111.483 47.8309 111.568 48.503 111.568 49.2412ZM108.939 49.4302V49.2412C108.939 48.8272 108.902 48.446 108.83 48.098C108.763 47.7439 108.654 47.4348 108.502 47.1708C108.357 46.9067 108.162 46.7026 107.92 46.5585C107.683 46.4086 107.395 46.3336 107.055 46.3336C106.698 46.3336 106.391 46.3906 106.137 46.5046C105.888 46.6187 105.685 46.7836 105.527 46.9997C105.369 47.2157 105.251 47.4738 105.172 47.7739C105.093 48.074 105.045 48.4131 105.027 48.7912V50.0425C105.057 50.4865 105.142 50.8857 105.281 51.2397C105.421 51.5879 105.636 51.8638 105.927 52.0679C106.219 52.272 106.601 52.374 107.074 52.374C107.419 52.374 107.711 52.2989 107.947 52.1489C108.184 51.9929 108.375 51.7799 108.52 51.5099C108.672 51.2397 108.778 50.9277 108.839 50.5736C108.905 50.2194 108.939 49.8384 108.939 49.4302ZM115.808 50.6005L119.111 44.479H121.731V54.2195H119.111V48.0889L115.808 54.2195H113.188V44.479H115.808V50.6005ZM130.375 44.479V46.5136H125.534V44.479H130.375ZM132.294 44.479V54.2195H129.674V44.479H132.294ZM124.879 44.479H127.454L127.19 49.3943C127.154 50.0965 127.078 50.7145 126.963 51.2488C126.847 51.7829 126.693 52.2389 126.499 52.617C126.311 52.9951 126.083 53.3043 125.816 53.5443C125.555 53.7784 125.249 53.9494 124.897 54.0574C124.552 54.1654 124.169 54.2195 123.751 54.2195H122.95L122.923 52.176L123.26 52.14C123.454 52.1219 123.624 52.0679 123.769 51.9779C123.921 51.8818 124.048 51.7468 124.151 51.5728C124.261 51.3927 124.351 51.1676 124.424 50.8976C124.497 50.6216 124.555 50.2974 124.597 49.9255C124.646 49.5533 124.679 49.1242 124.697 48.6382L124.879 44.479ZM133.905 49.4482V49.2592C133.905 48.5451 134.008 47.8879 134.214 47.2878C134.42 46.6816 134.72 46.1565 135.115 45.7124C135.509 45.2683 135.994 44.9232 136.57 44.6772C137.147 44.4251 137.808 44.2991 138.554 44.2991C139.3 44.2991 139.964 44.4251 140.546 44.6772C141.129 44.9232 141.617 45.2683 142.011 45.7124C142.412 46.1565 142.715 46.6816 142.921 47.2878C143.127 47.8879 143.23 48.5451 143.23 49.2592V49.4482C143.23 50.1565 143.127 50.8137 142.921 51.4198C142.715 52.02 142.412 52.545 142.011 52.9951C141.617 53.4393 141.132 53.7843 140.556 54.0304C139.979 54.2765 139.318 54.3996 138.572 54.3996C137.826 54.3996 137.162 54.2765 136.58 54.0304C136.003 53.7843 135.515 53.4393 135.115 52.9951C134.72 52.545 134.42 52.02 134.214 51.4198C134.008 50.8137 133.905 50.1565 133.905 49.4482ZM136.525 49.2592V49.4482C136.525 49.8564 136.561 50.2375 136.634 50.5916C136.707 50.9457 136.822 51.2577 136.98 51.5279C137.144 51.7918 137.356 51.9989 137.617 52.1489C137.878 52.2989 138.196 52.374 138.572 52.374C138.936 52.374 139.248 52.2989 139.509 52.1489C139.77 51.9989 139.979 51.7918 140.137 51.5279C140.295 51.2577 140.41 50.9457 140.483 50.5916C140.562 50.2375 140.601 49.8564 140.601 49.4482V49.2592C140.601 48.8631 140.562 48.4911 140.483 48.1429C140.41 47.789 140.292 47.4768 140.128 47.2068C139.97 46.9307 139.761 46.7147 139.5 46.5585C139.239 46.4025 138.924 46.3245 138.554 46.3245C138.184 46.3245 137.868 46.4025 137.608 46.5585C137.353 46.7147 137.144 46.9307 136.98 47.2068C136.822 47.4768 136.707 47.789 136.634 48.1429C136.561 48.4911 136.525 48.8631 136.525 49.2592ZM148.116 50.5466L144.022 44.479H147.271L149.363 48.152H151.247L150.927 50.5466H148.116ZM149.399 50.1054L147.152 54.2195H143.995L147.261 48.8542L149.399 50.1054ZM152.948 44.479V54.2195H150.327V44.479H152.948ZM159.279 44.479L155.186 50.5466H152.375L152.055 48.152H153.939L156.023 44.479H159.279ZM156.142 54.2195L153.894 50.1054L156.114 48.8542L159.362 54.2195H156.142ZM164.984 54.3996C164.22 54.3996 163.535 54.2794 162.928 54.0393C162.322 53.7933 161.806 53.4542 161.382 53.0222C160.963 52.5901 160.642 52.0889 160.417 51.5188C160.192 50.9427 160.08 50.3305 160.08 49.6824V49.3223C160.08 48.5841 160.186 47.9089 160.399 47.2968C160.611 46.6846 160.915 46.1535 161.309 45.7034C161.709 45.2532 162.195 44.9082 162.765 44.6681C163.334 44.422 163.978 44.2991 164.693 44.2991C165.391 44.2991 166.01 44.4131 166.549 44.6411C167.089 44.8692 167.541 45.1932 167.905 45.6133C168.275 46.0335 168.554 46.5375 168.742 47.1257C168.93 47.7078 169.024 48.3561 169.024 49.0701V50.1505H161.2V48.422H166.449V48.2241C166.449 47.864 166.383 47.5429 166.249 47.2608C166.122 46.9726 165.928 46.7446 165.668 46.5765C165.407 46.4086 165.073 46.3245 164.666 46.3245C164.32 46.3245 164.023 46.3996 163.774 46.5496C163.526 46.6996 163.323 46.9097 163.165 47.1797C163.013 47.4499 162.898 47.7678 162.819 48.134C162.746 48.4941 162.711 48.8902 162.711 49.3223V49.6824C162.711 50.0724 162.765 50.4326 162.874 50.7626C162.989 51.0926 163.149 51.3778 163.356 51.6178C163.568 51.8579 163.823 52.044 164.12 52.176C164.423 52.308 164.766 52.374 165.149 52.374C165.622 52.374 166.062 52.284 166.467 52.1039C166.88 51.9179 167.234 51.6388 167.532 51.2668L168.805 52.6351C168.6 52.9292 168.318 53.2113 167.959 53.4813C167.608 53.7513 167.183 53.9734 166.685 54.1474C166.188 54.3155 165.622 54.3996 164.984 54.3996ZM177.257 48.4131V50.4295H172.254V48.4131H177.257ZM173.128 44.479V54.2195H170.506V44.479H173.128ZM179.032 44.479V54.2195H176.403V44.479H179.032ZM183.682 50.6005L186.984 44.479H189.604V54.2195H186.984V48.0889L183.682 54.2195H181.062V44.479H183.682V50.6005ZM194.235 50.6005L197.538 44.479H200.159V54.2195H197.538V48.0889L194.235 54.2195H191.615V44.479H194.235V50.6005Z" fill="black"/>
</g>
<defs>
<clipPath id="clip0_17_392">
<rect width="215" height="75" fill="white"/>
</clipPath>
</defs>
</svg>
