<svg width="215" height="76" viewBox="0 0 215 76" fill="none" xmlns="http://www.w3.org/2000/svg">
<path d="M200.667 0.474976H14.3333C6.41725 0.474976 0 6.85492 0 14.725V60.325C0 68.195 6.41725 74.575 14.3333 74.575H200.667C208.583 74.575 215 68.195 215 60.325V14.725C215 6.85492 208.583 0.474976 200.667 0.474976Z" fill="white"/>
<path d="M86.0447 47.5779V54.0015C85.791 54.3057 85.399 54.6361 84.8689 54.9923C84.3389 55.3412 83.6559 55.6417 82.8197 55.8941C81.9836 56.1464 80.9721 56.2725 79.7852 56.2725C78.7326 56.2725 77.7732 56.102 76.9072 55.7605C76.0413 55.4117 75.2947 54.9033 74.6678 54.2354C74.0481 53.5673 73.5703 52.7509 73.2344 51.7861C72.8985 50.8138 72.7305 49.7043 72.7305 48.4574V47.4442C72.7305 46.1974 72.891 45.0879 73.2119 44.1156C73.5404 43.1433 74.007 42.3232 74.6117 41.6552C75.2164 40.9873 75.9368 40.4788 76.7729 40.13C77.609 39.7812 78.5385 39.6067 79.5612 39.6067C80.9796 39.6067 82.1442 39.8369 83.0549 40.297C83.9657 40.7497 84.66 41.3806 85.1377 42.1895C85.623 42.9911 85.9216 43.9115 86.0335 44.9505H82.775C82.6929 44.4013 82.536 43.9226 82.3047 43.5144C82.0732 43.1062 81.741 42.787 81.3081 42.5569C80.8826 42.3269 80.3301 42.2119 79.6507 42.2119C79.0909 42.2119 78.5907 42.3269 78.1502 42.5569C77.7173 42.7796 77.3514 43.11 77.0528 43.5479C76.7543 43.9858 76.5265 44.5275 76.3697 45.1732C76.213 45.8189 76.1346 46.5686 76.1346 47.422V48.4574C76.1346 49.3034 76.2168 50.0531 76.381 50.7062C76.5451 51.3519 76.7878 51.8974 77.1089 52.3427C77.4373 52.7806 77.8404 53.1109 78.3182 53.3336C78.796 53.5562 79.3522 53.6675 79.9867 53.6675C80.5168 53.6675 80.9572 53.623 81.3081 53.534C81.6664 53.4449 81.9538 53.3373 82.1703 53.2111C82.3943 53.0775 82.566 52.9513 82.6854 52.8326V49.9604H79.6172V47.5779H86.0447ZM88.038 50.1496V49.9158C88.038 49.0325 88.1649 48.2199 88.4187 47.4777C88.6726 46.728 89.0421 46.0787 89.5273 45.5295C90.0126 44.9803 90.6097 44.5535 91.3189 44.2492C92.0282 43.9374 92.8419 43.7816 93.7602 43.7816C94.6784 43.7816 95.4958 43.9374 96.2125 44.2492C96.9291 44.5535 97.5301 44.9803 98.0153 45.5295C98.5081 46.0787 98.8813 46.728 99.1352 47.4777C99.3889 48.2199 99.5159 49.0325 99.5159 49.9158V50.1496C99.5159 51.0254 99.3889 51.8381 99.1352 52.5876C98.8813 53.3298 98.5081 53.9793 98.0153 54.5359C97.5301 55.0851 96.9329 55.5119 96.2237 55.8161C95.5144 56.1205 94.7008 56.2725 93.7826 56.2725C92.8644 56.2725 92.0469 56.1205 91.3303 55.8161C90.621 55.5119 90.0201 55.0851 89.5273 54.5359C89.0421 53.9793 88.6726 53.3298 88.4187 52.5876C88.1649 51.8381 88.038 51.0254 88.038 50.1496ZM91.263 49.9158V50.1496C91.263 50.6542 91.3078 51.1256 91.3973 51.5635C91.4869 52.0014 91.6288 52.3873 91.8229 52.7213C92.0244 53.0478 92.2857 53.3038 92.6068 53.4894C92.9277 53.6749 93.3197 53.7677 93.7826 53.7677C94.2305 53.7677 94.6149 53.6749 94.936 53.4894C95.2569 53.3038 95.5144 53.0478 95.7085 52.7213C95.9027 52.3873 96.0445 52.0014 96.1341 51.5635C96.2311 51.1256 96.2797 50.6542 96.2797 50.1496V49.9158C96.2797 49.426 96.2311 48.9657 96.1341 48.5354C96.0445 48.0975 95.8989 47.7114 95.6973 47.3775C95.5033 47.0361 95.2457 46.7689 94.9248 46.576C94.6037 46.3829 94.2156 46.2864 93.7602 46.2864C93.3048 46.2864 92.9165 46.3829 92.5956 46.576C92.282 46.7689 92.0244 47.0361 91.8229 47.3775C91.6288 47.7114 91.4869 48.0975 91.3973 48.5354C91.3078 48.9657 91.263 49.426 91.263 49.9158ZM100.983 50.1496V49.9158C100.983 49.0325 101.11 48.2199 101.364 47.4777C101.617 46.728 101.987 46.0787 102.472 45.5295C102.957 44.9803 103.555 44.5535 104.264 44.2492C104.973 43.9374 105.787 43.7816 106.705 43.7816C107.623 43.7816 108.441 43.9374 109.157 44.2492C109.874 44.5535 110.475 44.9803 110.96 45.5295C111.453 46.0787 111.826 46.728 112.08 47.4777C112.334 48.2199 112.461 49.0325 112.461 49.9158V50.1496C112.461 51.0254 112.334 51.8381 112.08 52.5876C111.826 53.3298 111.453 53.9793 110.96 54.5359C110.475 55.0851 109.878 55.5119 109.169 55.8161C108.459 56.1205 107.646 56.2725 106.727 56.2725C105.809 56.2725 104.992 56.1205 104.275 55.8161C103.566 55.5119 102.965 55.0851 102.472 54.5359C101.987 53.9793 101.617 53.3298 101.364 52.5876C101.11 51.8381 100.983 51.0254 100.983 50.1496ZM104.208 49.9158V50.1496C104.208 50.6542 104.253 51.1256 104.342 51.5635C104.432 52.0014 104.574 52.3873 104.768 52.7213C104.969 53.0478 105.231 53.3038 105.552 53.4894C105.873 53.6749 106.264 53.7677 106.727 53.7677C107.175 53.7677 107.56 53.6749 107.881 53.4894C108.202 53.3038 108.459 53.0478 108.653 52.7213C108.847 52.3873 108.989 52.0014 109.079 51.5635C109.176 51.1256 109.224 50.6542 109.224 50.1496V49.9158C109.224 49.426 109.176 48.9657 109.079 48.5354C108.989 48.0975 108.844 47.7114 108.642 47.3775C108.448 47.0361 108.191 46.7689 107.869 46.576C107.549 46.3829 107.16 46.2864 106.705 46.2864C106.25 46.2864 105.861 46.3829 105.54 46.576C105.227 46.7689 104.969 47.0361 104.768 47.3775C104.574 47.7114 104.432 48.0975 104.342 48.5354C104.253 48.9657 104.208 49.426 104.208 49.9158ZM122.113 44.0043H125.036V55.6492C125.036 56.7476 124.79 57.679 124.297 58.4435C123.812 59.2154 123.132 59.798 122.259 60.1913C121.385 60.5921 120.37 60.7925 119.213 60.7925C118.705 60.7925 118.168 60.7257 117.601 60.5921C117.041 60.4586 116.503 60.2507 115.988 59.9687C115.48 59.6867 115.055 59.3304 114.711 58.8999L116.134 57.0074C116.507 57.4379 116.94 57.7718 117.433 58.0093C117.925 58.2543 118.47 58.3767 119.067 58.3767C119.65 58.3767 120.142 58.2691 120.546 58.0538C120.949 57.846 121.259 57.5381 121.475 57.1298C121.691 56.7291 121.8 56.2429 121.8 55.6715V46.7875L122.113 44.0043ZM113.961 50.1718V49.938C113.961 49.0177 114.073 48.1828 114.297 47.4331C114.528 46.6762 114.853 46.0266 115.271 45.4849C115.697 44.9431 116.212 44.5238 116.817 44.2269C117.421 43.93 118.104 43.7816 118.866 43.7816C119.672 43.7816 120.348 43.93 120.893 44.2269C121.438 44.5238 121.886 44.9468 122.236 45.4961C122.587 46.0379 122.86 46.6799 123.054 47.422C123.255 48.1567 123.412 48.962 123.524 49.8378V50.3499C123.412 51.1886 123.244 51.9679 123.02 52.6878C122.796 53.4077 122.501 54.0386 122.136 54.5805C121.77 55.1149 121.314 55.5304 120.769 55.8274C120.232 56.1242 119.59 56.2725 118.844 56.2725C118.097 56.2725 117.421 56.1205 116.817 55.8161C116.219 55.5119 115.708 55.0851 115.283 54.5359C114.857 53.9867 114.528 53.341 114.297 52.5987C114.073 51.8566 113.961 51.0476 113.961 50.1718ZM117.186 49.938V50.1718C117.186 50.6691 117.235 51.133 117.332 51.5635C117.429 51.9938 117.578 52.3762 117.78 52.71C117.989 53.0366 118.246 53.2927 118.552 53.4783C118.866 53.6564 119.235 53.7454 119.661 53.7454C120.251 53.7454 120.732 53.623 121.105 53.3781C121.479 53.1257 121.759 52.7806 121.945 52.3427C122.132 51.9048 122.24 51.4002 122.27 50.8286V49.3703C122.255 48.9027 122.192 48.4833 122.08 48.1123C121.968 47.7338 121.811 47.4109 121.609 47.1437C121.408 46.8765 121.146 46.6687 120.826 46.5203C120.504 46.3718 120.124 46.2975 119.683 46.2975C119.258 46.2975 118.888 46.3942 118.575 46.5871C118.269 46.7726 118.011 47.0287 117.802 47.3552C117.601 47.6818 117.447 48.0677 117.343 48.513C117.238 48.9509 117.186 49.426 117.186 49.938ZM130.948 38.95V56.0499H127.712V38.95H130.948ZM139.19 56.2725C138.249 56.2725 137.406 56.1242 136.659 55.8274C135.913 55.523 135.278 55.1036 134.756 54.5692C134.241 54.0349 133.845 53.4151 133.569 52.71C133.293 51.9975 133.154 51.2406 133.154 50.439V49.9937C133.154 49.0808 133.285 48.2458 133.546 47.4888C133.808 46.7317 134.181 46.075 134.666 45.5183C135.159 44.9617 135.756 44.535 136.458 44.238C137.16 43.9337 137.951 43.7816 138.832 43.7816C139.69 43.7816 140.452 43.9226 141.116 44.2046C141.781 44.4866 142.337 44.8875 142.785 45.4069C143.24 45.9265 143.583 46.5499 143.815 47.2774C144.046 47.9973 144.162 48.7988 144.162 49.6819V51.018H134.532V48.8805H140.993V48.6355C140.993 48.1902 140.911 47.7931 140.747 47.4442C140.59 47.088 140.351 46.806 140.03 46.5982C139.709 46.3904 139.298 46.2864 138.798 46.2864C138.373 46.2864 138.007 46.3792 137.701 46.5649C137.395 46.7504 137.145 47.01 136.951 47.3441C136.764 47.6781 136.622 48.0714 136.525 48.5242C136.435 48.9694 136.391 49.4593 136.391 49.9937V50.439C136.391 50.9214 136.458 51.3667 136.592 51.775C136.734 52.1832 136.932 52.5358 137.186 52.8326C137.447 53.1294 137.761 53.3596 138.126 53.5229C138.5 53.686 138.921 53.7677 139.392 53.7677C139.974 53.7677 140.515 53.6564 141.015 53.4338C141.523 53.2037 141.96 52.8585 142.326 52.3984L143.894 54.0906C143.64 54.4542 143.292 54.8031 142.852 55.1371C142.419 55.4711 141.896 55.7457 141.284 55.9609C140.672 56.1687 139.974 56.2725 139.19 56.2725ZM158.26 50.272H154.106V47.667H158.26C158.902 47.667 159.425 47.5631 159.828 47.3552C160.231 47.14 160.526 46.8432 160.712 46.4645C160.899 46.0861 160.992 45.6593 160.992 45.1843C160.992 44.702 160.899 44.2529 160.712 43.8373C160.526 43.4216 160.231 43.0876 159.828 42.8354C159.425 42.583 158.902 42.4567 158.26 42.4567H155.27V56.0499H151.91V39.8406H158.26C159.537 39.8406 160.631 40.0707 161.541 40.5308C162.46 40.9836 163.161 41.6107 163.647 42.4123C164.131 43.2138 164.375 44.1304 164.375 45.1621C164.375 46.2086 164.131 47.1141 163.647 47.8784C163.161 48.6429 162.46 49.2329 161.541 49.6486C160.631 50.0642 159.537 50.272 158.26 50.272ZM169.894 38.95V56.0499H166.658V38.95H169.894ZM179.099 53.3336V47.9675C179.099 47.5816 179.036 47.2513 178.909 46.9767C178.783 46.6947 178.585 46.4757 178.315 46.3199C178.054 46.164 177.715 46.0861 177.296 46.0861C176.938 46.0861 176.628 46.1492 176.367 46.2753C176.106 46.3941 175.904 46.5686 175.762 46.7986C175.621 47.0213 175.55 47.2848 175.55 47.589H172.325C172.325 47.0769 172.444 46.5908 172.684 46.1307C172.922 45.6704 173.268 45.266 173.724 44.9171C174.18 44.5609 174.72 44.2826 175.348 44.0822C175.983 43.8817 176.691 43.7816 177.475 43.7816C178.417 43.7816 179.253 43.9374 179.984 44.2492C180.716 44.5609 181.291 45.0284 181.708 45.6519C182.134 46.2753 182.347 47.0546 182.347 47.9899V53.1442C182.347 53.8049 182.387 54.3466 182.47 54.7697C182.552 55.1853 182.671 55.5489 182.829 55.8607V56.0499H179.569C179.413 55.7233 179.294 55.3152 179.211 54.8253C179.137 54.3281 179.099 53.8308 179.099 53.3336ZM179.525 48.7135L179.548 50.5281H177.745C177.319 50.5281 176.949 50.5764 176.635 50.6729C176.323 50.7693 176.065 50.9066 175.863 51.0847C175.662 51.2554 175.513 51.4557 175.416 51.6859C175.325 51.916 175.281 52.1682 175.281 52.443C175.281 52.7176 175.344 52.9661 175.472 53.1888C175.598 53.404 175.781 53.5747 176.02 53.701C176.258 53.8197 176.539 53.8791 176.86 53.8791C177.345 53.8791 177.766 53.7826 178.125 53.5895C178.483 53.3966 178.76 53.1592 178.955 52.877C179.155 52.595 179.26 52.3278 179.267 52.0755L180.118 53.4338C179.999 53.738 179.835 54.0535 179.625 54.38C179.425 54.7066 179.167 55.0145 178.853 55.3041C178.539 55.5861 178.162 55.8198 177.722 56.0055C177.282 56.1836 176.759 56.2725 176.154 56.2725C175.386 56.2725 174.687 56.1205 174.061 55.8161C173.44 55.5045 172.947 55.0777 172.582 54.5359C172.224 53.9867 172.044 53.3633 172.044 52.6656C172.044 52.0347 172.165 51.4744 172.403 50.9845C172.642 50.4947 172.993 50.0828 173.456 49.7487C173.926 49.4073 174.513 49.1514 175.214 48.9807C175.916 48.8025 176.729 48.7135 177.654 48.7135H179.525ZM188.248 54.6918L191.462 44.0043H194.922L190.051 57.8645C189.947 58.1689 189.805 58.4954 189.626 58.8442C189.454 59.1931 189.219 59.5234 188.92 59.835C188.629 60.1542 188.26 60.414 187.811 60.6144C187.371 60.8149 186.829 60.915 186.187 60.915C185.882 60.915 185.631 60.8964 185.437 60.8593C185.244 60.8223 185.012 60.7703 184.744 60.7034V58.3545C184.825 58.3545 184.911 58.3545 185 58.3545C185.091 58.3619 185.177 58.3656 185.258 58.3656C185.684 58.3656 186.031 58.3173 186.3 58.2208C186.568 58.1243 186.785 57.976 186.95 57.7755C187.113 57.5825 187.243 57.3302 187.341 57.0185L188.248 54.6918ZM186.904 44.0043L189.535 52.7324L189.995 56.1279L187.8 56.3617L183.444 44.0043H186.904Z" fill="black"/>
<path d="M80.8379 26.6094H81.8709C81.7869 27.4277 81.5601 28.1347 81.1906 28.7302C80.8211 29.3203 80.3173 29.7739 79.6789 30.0912C79.0406 30.4086 78.2708 30.5672 77.3694 30.5672C76.6751 30.5672 76.0453 30.4363 75.4798 30.1747C74.9198 29.9131 74.4383 29.5429 74.0352 29.0642C73.6321 28.58 73.3213 28.001 73.103 27.3276C72.8846 26.654 72.7754 25.9053 72.7754 25.0815V23.5619C72.7754 22.7379 72.8846 21.9921 73.103 21.3242C73.3213 20.6506 73.6348 20.0717 74.0436 19.5874C74.4524 19.1032 74.9423 18.7301 75.5133 18.4686C76.0844 18.207 76.7282 18.0762 77.4449 18.0762C78.3128 18.0762 79.0631 18.2348 79.6958 18.552C80.3285 18.8638 80.8267 19.3146 81.1906 19.9047C81.5601 20.4947 81.7869 21.2072 81.8709 22.0422H80.8379C80.7596 21.3853 80.5861 20.8287 80.3173 20.3723C80.0486 19.9158 79.6762 19.5679 79.2003 19.3286C78.7299 19.0836 78.1448 18.9612 77.4449 18.9612C76.8739 18.9612 76.3643 19.0697 75.9164 19.2869C75.4685 19.5039 75.0878 19.8157 74.7743 20.2219C74.4607 20.6228 74.2199 21.1043 74.0521 21.6665C73.8897 22.2286 73.8084 22.8549 73.8084 23.5452V25.0815C73.8084 25.7494 73.8868 26.3645 74.0436 26.9267C74.2004 27.4889 74.4299 27.9759 74.7323 28.3879C75.0402 28.7999 75.4153 29.1199 75.8576 29.3481C76.3 29.5764 76.8039 29.6905 77.3694 29.6905C78.0916 29.6905 78.6935 29.5764 79.1751 29.3481C79.6621 29.1144 80.0401 28.7692 80.3088 28.3128C80.5776 27.8562 80.7539 27.2885 80.8379 26.6094ZM85.2219 21.3659V30.4001H84.2141V21.3659H85.2219ZM91.2016 21.3659L87.0361 26.2588H84.8691L84.7601 25.3653H86.6076L89.9334 21.3659H91.2016ZM90.2946 30.4001L86.5069 26.1251L87.1451 25.3569L91.6216 30.4001H90.2946ZM98.6006 28.7803V24.1213C98.6006 23.6927 98.511 23.3225 98.3319 23.0108C98.1527 22.699 97.8895 22.4596 97.5424 22.2926C97.1952 22.1257 96.7669 22.0422 96.2574 22.0422C95.7871 22.0422 95.3673 22.1257 94.9976 22.2926C94.6337 22.4541 94.3455 22.6739 94.1326 22.9522C93.9255 23.225 93.8219 23.5284 93.8219 23.8624L92.8141 23.854C92.8141 23.5145 92.8981 23.1861 93.0661 22.8687C93.2341 22.5515 93.472 22.2677 93.7799 22.0172C94.0879 21.7666 94.4546 21.569 94.8801 21.4244C95.3113 21.274 95.7844 21.1989 96.2994 21.1989C96.949 21.1989 97.52 21.3074 98.0128 21.5245C98.511 21.7416 98.9002 22.0672 99.1801 22.5014C99.46 22.9356 99.6001 23.4811 99.6001 24.138V28.5048C99.6001 28.8165 99.6224 29.1393 99.6673 29.4733C99.7176 29.8073 99.7876 30.0828 99.8771 30.3V30.4001H98.8106C98.7434 30.1998 98.6902 29.9493 98.6511 29.6487C98.6174 29.3425 98.6006 29.0531 98.6006 28.7803ZM98.8358 25.1399L98.8526 25.9081H96.8789C96.3639 25.9081 95.9019 25.9554 95.4932 26.05C95.0901 26.1391 94.7485 26.2726 94.4686 26.4508C94.1887 26.6233 93.9731 26.8321 93.8219 27.077C93.6764 27.3219 93.6036 27.6003 93.6036 27.912C93.6036 28.2349 93.6847 28.5298 93.8471 28.797C94.0151 29.0642 94.2503 29.2785 94.5526 29.44C94.8605 29.5957 95.2244 29.6737 95.6444 29.6737C96.2042 29.6737 96.697 29.5708 97.1226 29.3647C97.5536 29.1588 97.9092 28.8889 98.1891 28.5549C98.469 28.2209 98.6567 27.8562 98.7518 27.4611L99.1886 28.0372C99.1158 28.3155 98.9813 28.6022 98.7854 28.8972C98.595 29.1866 98.3459 29.4594 98.0379 29.7154C97.73 29.9659 97.3661 30.1719 96.9461 30.3333C96.5319 30.4892 96.0615 30.5672 95.5351 30.5672C94.9417 30.5672 94.4239 30.4559 93.9816 30.2331C93.5448 30.0105 93.2033 29.7072 92.9569 29.323C92.7161 28.9334 92.5958 28.4936 92.5958 28.0039C92.5958 27.5586 92.691 27.1605 92.8813 26.8099C93.0717 26.4536 93.346 26.1529 93.7044 25.9081C94.0683 25.6576 94.505 25.4684 95.0146 25.3403C95.5296 25.2067 96.1063 25.1399 96.7446 25.1399H98.8358ZM108.754 21.3659V30.4001H107.755V21.3659H108.754ZM108.41 25.4655V26.3255C108.153 26.448 107.856 26.5649 107.52 26.6762C107.189 26.7875 106.84 26.8794 106.47 26.9518C106.106 27.0186 105.742 27.052 105.378 27.052C104.628 27.052 103.992 26.9434 103.472 26.7264C102.957 26.5092 102.568 26.1529 102.304 25.6576C102.041 25.1566 101.91 24.4887 101.91 23.6536V21.3575H102.909V23.6536C102.909 24.2937 102.999 24.8003 103.178 25.1732C103.357 25.5406 103.628 25.8022 103.992 25.9581C104.356 26.114 104.818 26.192 105.378 26.192C105.765 26.1809 106.148 26.1418 106.529 26.075C106.91 26.0027 107.262 25.9137 107.587 25.8078C107.917 25.6965 108.192 25.5824 108.41 25.4655ZM116.976 28.7803V24.1213C116.976 23.6927 116.887 23.3225 116.708 23.0108C116.528 22.699 116.265 22.4596 115.918 22.2926C115.571 22.1257 115.143 22.0422 114.633 22.0422C114.163 22.0422 113.743 22.1257 113.374 22.2926C113.01 22.4541 112.721 22.6739 112.508 22.9522C112.301 23.225 112.198 23.5284 112.198 23.8624L111.19 23.854C111.19 23.5145 111.274 23.1861 111.442 22.8687C111.61 22.5515 111.848 22.2677 112.156 22.0172C112.464 21.7666 112.83 21.569 113.256 21.4244C113.687 21.274 114.16 21.1989 114.675 21.1989C115.325 21.1989 115.896 21.3074 116.389 21.5245C116.887 21.7416 117.276 22.0672 117.556 22.5014C117.836 22.9356 117.976 23.4811 117.976 24.138V28.5048C117.976 28.8165 117.998 29.1393 118.043 29.4733C118.093 29.8073 118.163 30.0828 118.253 30.3V30.4001H117.186C117.119 30.1998 117.066 29.9493 117.027 29.6487C116.993 29.3425 116.976 29.0531 116.976 28.7803ZM117.212 25.1399L117.228 25.9081H115.255C114.74 25.9081 114.278 25.9554 113.869 26.05C113.466 26.1391 113.124 26.2726 112.844 26.4508C112.564 26.6233 112.349 26.8321 112.198 27.077C112.052 27.3219 111.979 27.6003 111.979 27.912C111.979 28.2349 112.06 28.5298 112.223 28.797C112.391 29.0642 112.626 29.2785 112.928 29.44C113.236 29.5957 113.6 29.6737 114.02 29.6737C114.58 29.6737 115.073 29.5708 115.498 29.3647C115.929 29.1588 116.285 28.8889 116.565 28.5549C116.845 28.2209 117.032 27.8562 117.128 27.4611L117.564 28.0372C117.492 28.3155 117.357 28.6022 117.161 28.8972C116.971 29.1866 116.722 29.4594 116.414 29.7154C116.106 29.9659 115.742 30.1719 115.322 30.3333C114.908 30.4892 114.437 30.5672 113.911 30.5672C113.318 30.5672 112.8 30.4559 112.357 30.2331C111.921 30.0105 111.579 29.7072 111.333 29.323C111.092 28.9334 110.972 28.4936 110.972 28.0039C110.972 27.5586 111.067 27.1605 111.257 26.8099C111.447 26.4536 111.722 26.1529 112.08 25.9081C112.444 25.6576 112.881 25.4684 113.39 25.3403C113.905 25.2067 114.482 25.1399 115.12 25.1399H117.212ZM121.73 28.7803L126.643 21.3659H127.651V30.4001H126.643V22.9857L121.73 30.4001H120.739V21.3659H121.73V28.7803ZM125.719 18.1262H126.576C126.576 18.5437 126.478 18.9139 126.282 19.2367C126.092 19.5596 125.814 19.8128 125.45 19.9965C125.086 20.1802 124.655 20.2721 124.157 20.2721C123.407 20.2721 122.813 20.0717 122.377 19.6709C121.945 19.2702 121.73 18.7552 121.73 18.1262H122.578C122.578 18.5102 122.696 18.8442 122.931 19.1281C123.172 19.4066 123.58 19.5456 124.157 19.5456C124.717 19.5456 125.117 19.4037 125.358 19.1198C125.599 18.836 125.719 18.5047 125.719 18.1262ZM133.555 21.3659V30.4001H132.556V21.3659H133.555ZM136.864 21.3659V22.2175H129.364V21.3659H136.864ZM141.366 30.5672C140.772 30.5672 140.226 30.4586 139.728 30.2415C139.235 30.0244 138.804 29.7183 138.434 29.323C138.07 28.9278 137.788 28.4603 137.586 27.9204C137.39 27.3749 137.292 26.7792 137.292 26.1336V25.7745C137.292 25.0786 137.396 24.4496 137.603 23.8875C137.81 23.3253 138.096 22.8438 138.46 22.4429C138.824 22.0422 139.238 21.736 139.703 21.5245C140.173 21.3074 140.666 21.1989 141.181 21.1989C141.757 21.1989 142.27 21.3018 142.718 21.5079C143.166 21.7082 143.541 21.9949 143.842 22.3678C144.151 22.7352 144.383 23.1721 144.54 23.6787C144.697 24.1797 144.775 24.7335 144.775 25.3403V25.9499H137.897V25.0981H143.776V24.9813C143.765 24.4747 143.662 24.0016 143.465 23.5619C143.275 23.1165 142.989 22.7547 142.608 22.4764C142.228 22.198 141.752 22.0589 141.181 22.0589C140.755 22.0589 140.363 22.148 140.005 22.3261C139.652 22.5042 139.347 22.7603 139.09 23.0942C138.838 23.4226 138.642 23.8151 138.502 24.2715C138.367 24.7224 138.3 25.2234 138.3 25.7745V26.1336C138.3 26.6344 138.373 27.102 138.518 27.5362C138.67 27.9648 138.882 28.3433 139.157 28.6718C139.437 29.0002 139.767 29.2563 140.148 29.44C140.528 29.6237 140.948 29.7154 141.407 29.7154C141.945 29.7154 142.421 29.6181 142.835 29.4233C143.25 29.2228 143.622 28.9083 143.953 28.4797L144.582 28.964C144.386 29.2534 144.139 29.5206 143.842 29.7656C143.551 30.0106 143.202 30.2053 142.793 30.35C142.385 30.4948 141.909 30.5672 141.366 30.5672ZM154.971 26.2337H151.78L151.763 25.3987H154.483C155.032 25.3987 155.488 25.3403 155.852 25.2234C156.222 25.1009 156.5 24.92 156.684 24.6806C156.874 24.4414 156.97 24.1462 156.97 23.7956C156.97 23.5284 156.914 23.2947 156.801 23.0942C156.695 22.8938 156.533 22.7297 156.315 22.6015C156.102 22.4736 155.834 22.379 155.508 22.3177C155.189 22.2509 154.817 22.2175 154.392 22.2175H152.065V30.4001H151.066V21.3659H154.392C154.946 21.3659 155.441 21.4159 155.878 21.5161C156.321 21.6107 156.698 21.7555 157.012 21.9503C157.326 22.1451 157.564 22.3956 157.726 22.7019C157.893 23.0024 157.978 23.3586 157.978 23.7706C157.978 24.0489 157.925 24.3105 157.817 24.5554C157.711 24.7948 157.555 25.0119 157.347 25.2067C157.147 25.396 156.897 25.5519 156.6 25.6743C156.304 25.7911 155.963 25.8635 155.576 25.8913L154.971 26.2337ZM154.971 30.4001H151.469L151.855 29.5484H154.971C155.475 29.5484 155.904 29.4844 156.256 29.3565C156.609 29.2284 156.874 29.0391 157.053 28.7886C157.238 28.5382 157.331 28.2349 157.331 27.8786C157.331 27.5446 157.238 27.2552 157.053 27.0102C156.874 26.7653 156.609 26.576 156.256 26.4425C155.904 26.3033 155.475 26.2337 154.971 26.2337H152.653L152.67 25.3987H155.652L156.08 25.716C156.539 25.7549 156.936 25.8775 157.273 26.0834C157.608 26.2893 157.869 26.5509 158.054 26.8683C158.237 27.1799 158.33 27.5224 158.33 27.8953C158.33 28.3071 158.252 28.6718 158.095 28.9891C157.938 29.3008 157.711 29.5624 157.415 29.7739C157.124 29.9799 156.771 30.1358 156.357 30.2415C155.943 30.3473 155.481 30.4001 154.971 30.4001Z" fill="black"/>
<path d="M21.4697 16.1072C20.9198 16.7583 20.6418 17.5915 20.6921 18.4375V55.1927C20.6446 56.0383 20.9224 56.8706 21.4697 57.523L21.5969 57.6485L42.453 37.0523V36.564L21.5969 15.9817L21.4697 16.1072Z" fill="url(#paint0_linear_17_380)"/>
<path d="M49.4099 43.9177L42.4531 37.0523V36.5639L49.4099 29.7124L49.5655 29.7962L57.8088 34.4149C60.1703 35.7266 60.1703 37.8895 57.8088 39.2152L49.5655 43.834L49.4099 43.9177Z" fill="url(#paint1_linear_17_380)"/>
<path d="M49.5655 43.8339L42.4955 36.8568L21.47 57.5229C21.9546 57.916 22.558 58.139 23.1851 58.1567C23.8122 58.1744 24.4275 57.9859 24.9342 57.6205L49.523 43.8339" fill="url(#paint2_linear_17_380)"/>
<path d="M49.5655 29.7961L24.9342 15.9955C24.433 15.6152 23.8136 15.4186 23.1818 15.4389C22.55 15.4593 21.9448 15.6954 21.47 16.1071L42.4531 36.8151L49.5655 29.7961Z" fill="url(#paint3_linear_17_380)"/>
<path opacity="0.1" d="M49.4097 43.6807L24.9341 57.3836C24.4458 57.7426 23.8533 57.9365 23.2444 57.9365C22.6355 57.9365 22.043 57.7426 21.5546 57.3836L21.4275 57.5091L21.5546 57.6347C22.043 57.9938 22.6355 58.1877 23.2444 58.1877C23.8533 58.1877 24.4458 57.9938 24.9341 57.6347L49.523 43.8481L49.4097 43.6807Z" fill="black"/>
<path opacity="0.07" d="M21.47 57.2998C20.9217 56.6425 20.6442 55.8057 20.6924 54.9556V55.1928C20.6449 56.0386 20.9227 56.8708 21.47 57.5231L21.5972 57.3976L21.47 57.2998Z" fill="black"/>
<path opacity="0.07" d="M57.809 38.964L49.4099 43.6805L49.5656 43.834L57.809 39.1594C58.2924 38.9495 58.7108 38.6168 59.0214 38.1951C59.3319 37.7735 59.5235 37.278 59.5764 36.7593C59.4799 37.2386 59.2694 37.6887 58.9621 38.072C58.6548 38.4553 58.2594 38.7611 57.809 38.964Z" fill="black"/>
<path opacity="0.3" d="M24.9342 16.2469L57.809 34.6524C58.2552 34.8503 58.6478 35.1493 58.9548 35.525C59.2619 35.9009 59.4749 36.3428 59.5764 36.8152C59.5264 36.2957 59.3359 35.7989 59.025 35.3767C58.7141 34.9546 58.2942 34.6224 57.809 34.4151L24.9342 15.9957C22.6153 14.684 20.6924 15.7724 20.6924 18.4377V18.6748C20.6924 16.0236 22.6153 14.9212 24.9342 16.2469Z" fill="white"/>
<defs>
<linearGradient id="paint0_linear_17_380" x1="40.6148" y1="18.0469" x2="12.723" y2="46.3096" gradientUnits="userSpaceOnUse">
<stop stop-color="#008EFF"/>
<stop offset="0.01" stop-color="#008FFF"/>
<stop offset="0.26" stop-color="#00ACFF"/>
<stop offset="0.51" stop-color="#00C0FF"/>
<stop offset="0.76" stop-color="#00CDFF"/>
<stop offset="1" stop-color="#00D1FF"/>
</linearGradient>
<linearGradient id="paint1_linear_17_380" x1="58.0916" y1="36.815" x2="17.3411" y2="36.815" gradientUnits="userSpaceOnUse">
<stop stop-color="#FFD800"/>
<stop offset="1" stop-color="#FF8A00"/>
</linearGradient>
<linearGradient id="paint2_linear_17_380" x1="45.7053" y1="40.6245" x2="7.8931" y2="78.9396" gradientUnits="userSpaceOnUse">
<stop stop-color="#FF3A44"/>
<stop offset="1" stop-color="#B11162"/>
</linearGradient>
<linearGradient id="paint3_linear_17_380" x1="16.1817" y1="3.86942" x2="33.0788" y2="20.9771" gradientUnits="userSpaceOnUse">
<stop stop-color="#328E71"/>
<stop offset="0.07" stop-color="#2D9571"/>
<stop offset="0.48" stop-color="#15BD74"/>
<stop offset="0.8" stop-color="#06D575"/>
<stop offset="1" stop-color="#00DE76"/>
</linearGradient>
</defs>
</svg>
