<svg width="100" height="100" viewBox="0 0 100 100" fill="none" xmlns="http://www.w3.org/2000/svg">
<path d="M91.6666 50C91.6666 73.0105 73.0103 91.6667 49.9999 91.6667C26.9895 91.6667 8.33325 73.0105 8.33325 50C8.33325 26.9896 26.9895 8.33337 49.9999 8.33337C73.0103 8.33337 91.6666 26.9896 91.6666 50Z" fill="url(#paint0_linear_17_428)"/>
<path opacity="0.05" d="M21.0812 48.8875C38.0708 41.1896 58.0249 32.8375 61.0979 31.6292C67.8729 28.9646 70.827 31.6875 70.3645 36.0313C69.7958 41.3542 67.0999 56.8438 65.4416 67.9417C64.4708 74.4354 60.9541 76.425 56.9854 73.9063C53.9749 71.9958 43.6249 65.2188 40.902 62.9021C39.0458 61.3229 37.752 59.5521 39.0687 57.7479C39.4541 57.2208 40.4395 56.1583 40.9874 55.6292C43.7353 52.9667 43.3645 52.3938 40.0416 54.7709C39.6458 55.0542 37.3499 56.7188 36.4062 57.3479C34.0937 58.8896 31.9666 58.9729 28.3603 57.7479C25.4103 56.7458 22.577 55.9729 20.7895 55.2C18.3208 54.1313 17.3749 50.5667 21.0812 48.8875Z" fill="black"/>
<path opacity="0.07" d="M22.575 49.1479C38.35 42.0958 57.7499 34.0146 60.5874 32.8708C67.3874 30.125 69.8895 31.7542 69.1583 37.0604C68.4791 41.9729 66.0687 57.1729 64.3791 67.3625C63.3833 73.3604 60.4749 74.6812 56.6874 72.2312C54.3145 70.7021 44.7645 64.4104 42.4479 62.5792C40.6562 61.1646 38.8 59.5312 40.9687 57.1667C41.6937 56.3771 45.6979 52.5125 48.6916 49.6375C50.427 47.9688 49.8083 47.1458 47.7145 48.5792C43.875 51.2104 37.5937 55.375 36.4729 56.1313C34.3375 57.5688 32.3312 57.9146 28.8395 56.8167C26.0875 55.95 23.4291 55.1104 22.0437 54.5708C18.9479 53.3708 18.9062 50.7875 22.575 49.1479Z" fill="black"/>
<path d="M24.0688 49.4104C38.6313 43.0041 57.475 35.1937 60.0771 34.1125C66.9 31.2833 68.9938 31.825 67.95 38.0916C67.2 42.5958 65.0375 57.5062 63.3125 66.7875C62.2896 72.2916 59.9938 72.9437 56.3854 70.5625C54.65 69.4166 45.8896 63.6229 43.9875 62.2625C42.2521 61.0229 39.8584 59.5312 42.8604 56.5937C43.9292 55.5479 50.9313 48.8604 56.3875 43.6562C57.1021 42.9729 56.2042 41.85 55.3792 42.3979C48.025 47.275 37.8292 54.0437 36.5313 54.925C34.5709 56.2562 32.6875 56.8666 29.3084 55.8958C26.7542 55.1625 24.2604 54.2875 23.2896 53.9541C19.55 52.6708 20.4375 51.0083 24.0688 49.4104Z" fill="white"/>
<defs>
<linearGradient id="paint0_linear_17_428" x1="20.5374" y1="20.5375" x2="79.4624" y2="79.4625" gradientUnits="userSpaceOnUse">
<stop stop-color="#33BEF0"/>
<stop offset="1" stop-color="#0A85D9"/>
</linearGradient>
</defs>
</svg>
