<svg width="100" height="100" viewBox="0 0 100 100" fill="none" xmlns="http://www.w3.org/2000/svg">
<path d="M49.9999 8.33337C38.9492 8.33337 28.3512 12.7232 20.5371 20.5373C12.7231 28.3513 8.33325 38.9494 8.33325 50C8.33325 61.0507 12.7231 71.6488 20.5371 79.4628C28.3512 87.2768 38.9492 91.6667 49.9999 91.6667C61.0506 91.6667 71.6487 87.2768 79.4627 79.4628C87.2767 71.6488 91.6666 61.0507 91.6666 50C91.6666 38.9494 87.2767 28.3513 79.4627 20.5373C71.6487 12.7232 61.0506 8.33337 49.9999 8.33337Z" fill="#1976D2"/>
<path d="M74.8688 37.5854C74.9646 37.2708 75.0104 36.9791 74.9979 36.7187C74.9667 35.9645 74.4479 35.4166 73.2271 35.4166H67.7729C66.3958 35.4166 65.7604 36.25 65.3896 37.0854C65.3896 37.0854 61.9896 44.0833 58.0708 48.6979C56.8 50.0333 56.1542 50 55.4667 50C55.0979 50 54.1667 49.5541 54.1667 48.3312V37.5291C54.1667 36.0833 53.8063 35.4166 52.6417 35.4166H42.9563C42.1083 35.4166 41.6667 36.0833 41.6667 36.752C41.6667 38.1416 43.5375 38.475 43.75 42.3687V49.9166C43.75 51.75 43.4313 52.0833 42.7438 52.0833C40.8896 52.0833 37.2396 45.8333 34.7958 37.6416C34.2667 36.0291 33.7375 35.4166 32.3604 35.4166H26.8542C25.2646 35.4166 25 36.1958 25 37.0291C25 38.5312 26.25 46.652 33.0729 55.9895C38.0208 62.7604 44.5396 66.6666 50.3104 66.6666C53.8063 66.6666 54.1646 65.777 54.1646 64.3875V58.1958C54.1667 56.527 54.5479 56.25 55.6604 56.25C56.4542 56.25 58.0729 56.7708 61.1979 60.4166C64.8021 64.6208 65.4563 66.6666 67.5229 66.6666H72.9771C74.2438 66.6666 74.9708 66.1354 75 65.1041C75.0063 64.8416 74.9688 64.5479 74.8833 64.2208C74.4792 63.0208 72.625 60.0875 70.3125 57.2916C69.0313 55.7437 67.7667 54.2104 67.1854 53.377C66.7958 52.8333 66.6479 52.45 66.6667 52.0833C66.6854 51.6979 66.8854 51.3312 67.1854 50.8187C67.1313 50.8187 74.1813 40.9208 74.8688 37.5854Z" fill="white"/>
</svg>
